<?xml version="1.0" encoding="UTF-8" standalone="no"?>
<!DOCTYPE svg PUBLIC "-//W3C//DTD SVG 1.1//EN"
 "http://www.w3.org/Graphics/SVG/1.1/DTD/svg11.dtd">
<!-- Generated by graphviz version 2.36.0 (20140111.2315)
 -->
<!-- Title: class_definition Pages: 1 -->
<svg width="1722pt" height="548pt"
 viewBox="0.00 0.00 1722.00 548.00" xmlns="http://www.w3.org/2000/svg" xmlns:xlink="http://www.w3.org/1999/xlink">
<g id="graph0" class="graph" transform="scale(1 1) rotate(0) translate(4 544)">
<title>class_definition</title>
<polygon fill="white" stroke="none" points="-4,4 -4,-544 1718,-544 1718,4 -4,4"/>
<!-- class_definition -->
<g id="node1" class="node"><title>class_definition</title>
<ellipse fill="none" stroke="black" cx="1145" cy="-450" rx="65.9423" ry="18"/>
<text text-anchor="middle" x="1145" y="-446.3" font-family="Times,serif" font-size="14.00">class_definition</text>
</g>
<!-- class_prefixes -->
<g id="node2" class="node"><title>class_prefixes</title>
<ellipse fill="none" stroke="black" cx="1145" cy="-378" rx="60.1672" ry="18"/>
<text text-anchor="middle" x="1145" y="-374.3" font-family="Times,serif" font-size="14.00">class_prefixes</text>
</g>
<!-- class_definition&#45;&gt;class_prefixes -->
<g id="edge1" class="edge"><title>class_definition&#45;&gt;class_prefixes</title>
<path fill="none" stroke="black" d="M1145,-431.697C1145,-423.983 1145,-414.712 1145,-406.112"/>
<polygon fill="black" stroke="black" points="1148.5,-406.104 1145,-396.104 1141.5,-406.104 1148.5,-406.104"/>
</g>
<!-- class_specifier -->
<g id="node3" class="node"><title>class_specifier</title>
<ellipse fill="none" stroke="black" cx="888" cy="-378" rx="62.0922" ry="18"/>
<text text-anchor="middle" x="888" y="-374.3" font-family="Times,serif" font-size="14.00">class_specifier</text>
</g>
<!-- class_definition&#45;&gt;class_specifier -->
<g id="edge2" class="edge"><title>class_definition&#45;&gt;class_specifier</title>
<path fill="none" stroke="black" d="M1099.94,-436.727C1055.72,-424.683 988.283,-406.315 941.397,-393.544"/>
<polygon fill="black" stroke="black" points="942.288,-390.159 931.72,-390.908 940.449,-396.913 942.288,-390.159"/>
</g>
<!-- string_comment -->
<g id="node4" class="node"><title>string_comment</title>
<ellipse fill="none" stroke="black" cx="1219" cy="-306" rx="68.3417" ry="18"/>
<text text-anchor="middle" x="1219" y="-302.3" font-family="Times,serif" font-size="14.00">string_comment</text>
</g>
<!-- class_specifier&#45;&gt;string_comment -->
<g id="edge3" class="edge"><title>class_specifier&#45;&gt;string_comment</title>
<path fill="none" stroke="black" d="M934.656,-366.062C992.374,-353.397 1090.71,-332.584 1155.32,-319.348"/>
<polygon fill="black" stroke="black" points="1156.29,-322.722 1165.39,-317.291 1154.89,-315.864 1156.29,-322.722"/>
</g>
<!-- class_specifier&#45;&gt;string_comment -->
<g id="edge13" class="edge"><title>class_specifier&#45;&gt;string_comment</title>
<path fill="none" stroke="black" d="M938.508,-367.34C998.063,-355.236 1096.73,-334.416 1159.81,-320.678"/>
<polygon fill="black" stroke="black" points="1160.59,-324.09 1169.61,-318.536 1159.1,-317.251 1160.59,-324.09"/>
</g>
<!-- composition -->
<g id="node5" class="node"><title>composition</title>
<ellipse fill="none" stroke="black" cx="461" cy="-306" rx="54.3924" ry="18"/>
<text text-anchor="middle" x="461" y="-302.3" font-family="Times,serif" font-size="14.00">composition</text>
</g>
<!-- class_specifier&#45;&gt;composition -->
<g id="edge4" class="edge"><title>class_specifier&#45;&gt;composition</title>
<path fill="none" stroke="black" d="M829.903,-371.306C756.203,-363.127 625.807,-346.523 516,-324 513,-323.385 509.931,-322.713 506.85,-322.004"/>
<polygon fill="black" stroke="black" points="507.583,-318.581 497.041,-319.633 505.939,-325.385 507.583,-318.581"/>
</g>
<!-- class_specifier&#45;&gt;composition -->
<g id="edge14" class="edge"><title>class_specifier&#45;&gt;composition</title>
<path fill="none" stroke="black" d="M832.108,-370.101C762.024,-361.558 638.659,-345.467 534,-324 527.568,-322.681 520.821,-321.104 514.12,-319.451"/>
<polygon fill="black" stroke="black" points="514.928,-316.045 504.376,-316.994 513.216,-322.832 514.928,-316.045"/>
</g>
<!-- base_prefix -->
<g id="node6" class="node"><title>base_prefix</title>
<ellipse fill="none" stroke="black" cx="586" cy="-306" rx="51.4931" ry="18"/>
<text text-anchor="middle" x="586" y="-302.3" font-family="Times,serif" font-size="14.00">base_prefix</text>
</g>
<!-- class_specifier&#45;&gt;base_prefix -->
<g id="edge5" class="edge"><title>class_specifier&#45;&gt;base_prefix</title>
<path fill="none" stroke="black" d="M838.426,-366.935C789.572,-356.819 712.888,-340.413 647,-324 642.92,-322.984 638.697,-321.891 634.465,-320.769"/>
<polygon fill="black" stroke="black" points="635.205,-317.343 624.638,-318.115 633.38,-324.101 635.205,-317.343"/>
</g>
<!-- name -->
<g id="node7" class="node"><title>name</title>
<ellipse fill="none" stroke="black" cx="411" cy="-18" rx="30.3206" ry="18"/>
<text text-anchor="middle" x="411" y="-14.3" font-family="Times,serif" font-size="14.00">name</text>
</g>
<!-- class_specifier&#45;&gt;name -->
<g id="edge6" class="edge"><title>class_specifier&#45;&gt;name</title>
<path fill="none" stroke="black" d="M827.314,-373.718C627.068,-362.088 0,-318.966 0,-235 0,-235 0,-235 0,-161 0,-82.9047 268.448,-38.2914 371.434,-24.0496"/>
<polygon fill="black" stroke="black" points="372.004,-27.5043 381.442,-22.6896 371.062,-20.5681 372.004,-27.5043"/>
</g>
<!-- array_subscripts -->
<g id="node8" class="node"><title>array_subscripts</title>
<ellipse fill="none" stroke="black" cx="724" cy="-306" rx="68.3664" ry="18"/>
<text text-anchor="middle" x="724" y="-302.3" font-family="Times,serif" font-size="14.00">array_subscripts</text>
</g>
<!-- class_specifier&#45;&gt;array_subscripts -->
<g id="edge7" class="edge"><title>class_specifier&#45;&gt;array_subscripts</title>
<path fill="none" stroke="black" d="M854.416,-362.666C829.352,-351.967 794.885,-337.256 767.678,-325.643"/>
<polygon fill="black" stroke="black" points="768.956,-322.383 758.385,-321.677 766.208,-328.821 768.956,-322.383"/>
</g>
<!-- class_modification -->
<g id="node9" class="node"><title>class_modification</title>
<ellipse fill="none" stroke="black" cx="888" cy="-306" rx="77.0154" ry="18"/>
<text text-anchor="middle" x="888" y="-302.3" font-family="Times,serif" font-size="14.00">class_modification</text>
</g>
<!-- class_specifier&#45;&gt;class_modification -->
<g id="edge8" class="edge"><title>class_specifier&#45;&gt;class_modification</title>
<path fill="none" stroke="black" d="M882.122,-360.055C881.304,-352.346 881.061,-343.027 881.395,-334.364"/>
<polygon fill="black" stroke="black" points="884.894,-334.491 882.087,-324.275 877.911,-334.012 884.894,-334.491"/>
</g>
<!-- class_specifier&#45;&gt;class_modification -->
<g id="edge12" class="edge"><title>class_specifier&#45;&gt;class_modification</title>
<path fill="none" stroke="black" d="M893.878,-360.055C894.696,-352.346 894.939,-343.027 894.605,-334.364"/>
<polygon fill="black" stroke="black" points="898.089,-334.012 893.913,-324.275 891.106,-334.491 898.089,-334.012"/>
</g>
<!-- comment -->
<g id="node10" class="node"><title>comment</title>
<ellipse fill="none" stroke="black" cx="1184" cy="-18" rx="44.2946" ry="18"/>
<text text-anchor="middle" x="1184" y="-14.3" font-family="Times,serif" font-size="14.00">comment</text>
</g>
<!-- class_specifier&#45;&gt;comment -->
<g id="edge9" class="edge"><title>class_specifier&#45;&gt;comment</title>
<path fill="none" stroke="black" d="M943.874,-370.006C999.994,-361.834 1081.2,-346.5 1103,-324 1131.15,-294.955 1122,-275.447 1122,-235 1122,-235 1122,-235 1122,-161 1122,-117.014 1147.29,-71.2855 1165.57,-43.9859"/>
<polygon fill="black" stroke="black" points="1168.65,-45.6815 1171.45,-35.4634 1162.89,-41.7052 1168.65,-45.6815"/>
</g>
<!-- enumeration -->
<g id="node11" class="node"><title>enumeration</title>
<ellipse fill="none" stroke="black" cx="1039" cy="-306" rx="55.3682" ry="18"/>
<text text-anchor="middle" x="1039" y="-302.3" font-family="Times,serif" font-size="14.00">enumeration</text>
</g>
<!-- class_specifier&#45;&gt;enumeration -->
<g id="edge10" class="edge"><title>class_specifier&#45;&gt;enumeration</title>
<path fill="none" stroke="black" d="M919.655,-362.326C942.89,-351.554 974.603,-336.853 999.499,-325.312"/>
<polygon fill="black" stroke="black" points="1001.07,-328.439 1008.67,-321.058 998.13,-322.088 1001.07,-328.439"/>
</g>
<!-- enum_list -->
<g id="node12" class="node"><title>enum_list</title>
<ellipse fill="none" stroke="black" cx="1263" cy="-162" rx="46.2191" ry="18"/>
<text text-anchor="middle" x="1263" y="-158.3" font-family="Times,serif" font-size="14.00">enum_list</text>
</g>
<!-- class_specifier&#45;&gt;enum_list -->
<g id="edge11" class="edge"><title>class_specifier&#45;&gt;enum_list</title>
<path fill="none" stroke="black" d="M946.19,-371.47C1056.16,-360.74 1284.57,-337.013 1296,-324 1329.36,-286.023 1300.74,-223.5 1279.95,-188.595"/>
<polygon fill="black" stroke="black" points="1282.84,-186.613 1274.62,-179.936 1276.88,-190.285 1282.84,-186.613"/>
</g>
<!-- element_list -->
<g id="node15" class="node"><title>element_list</title>
<ellipse fill="none" stroke="black" cx="920" cy="-234" rx="53.4184" ry="18"/>
<text text-anchor="middle" x="920" y="-230.3" font-family="Times,serif" font-size="14.00">element_list</text>
</g>
<!-- composition&#45;&gt;element_list -->
<g id="edge18" class="edge"><title>composition&#45;&gt;element_list</title>
<path fill="none" stroke="black" d="M500.39,-293.537C508.479,-291.466 516.975,-289.493 525,-288 670.481,-260.928 710.519,-279.072 856,-252 860.959,-251.077 866.098,-249.971 871.21,-248.772"/>
<polygon fill="black" stroke="black" points="872.078,-252.163 880.952,-246.375 870.405,-245.366 872.078,-252.163"/>
</g>
<!-- equation_section -->
<g id="node16" class="node"><title>equation_section</title>
<ellipse fill="none" stroke="black" cx="212" cy="-234" rx="70.2909" ry="18"/>
<text text-anchor="middle" x="212" y="-230.3" font-family="Times,serif" font-size="14.00">equation_section</text>
</g>
<!-- composition&#45;&gt;equation_section -->
<g id="edge19" class="edge"><title>composition&#45;&gt;equation_section</title>
<path fill="none" stroke="black" d="M420.994,-293.753C379.282,-282.027 313.611,-263.565 267.028,-250.47"/>
<polygon fill="black" stroke="black" points="267.966,-247.098 257.392,-247.761 266.072,-253.837 267.966,-247.098"/>
</g>
<!-- algorithm_section -->
<g id="node17" class="node"><title>algorithm_section</title>
<ellipse fill="none" stroke="black" cx="375" cy="-234" rx="74.6146" ry="18"/>
<text text-anchor="middle" x="375" y="-230.3" font-family="Times,serif" font-size="14.00">algorithm_section</text>
</g>
<!-- composition&#45;&gt;algorithm_section -->
<g id="edge20" class="edge"><title>composition&#45;&gt;algorithm_section</title>
<path fill="none" stroke="black" d="M441.485,-289.116C430.184,-279.917 415.76,-268.177 403.237,-257.984"/>
<polygon fill="black" stroke="black" points="405.3,-255.15 395.335,-251.552 400.881,-260.579 405.3,-255.15"/>
</g>
<!-- language_specification -->
<g id="node18" class="node"><title>language_specification</title>
<ellipse fill="none" stroke="black" cx="559" cy="-234" rx="91.4625" ry="18"/>
<text text-anchor="middle" x="559" y="-230.3" font-family="Times,serif" font-size="14.00">language_specification</text>
</g>
<!-- composition&#45;&gt;language_specification -->
<g id="edge21" class="edge"><title>composition&#45;&gt;language_specification</title>
<path fill="none" stroke="black" d="M482.749,-289.465C495.948,-280.037 513.015,-267.847 527.654,-257.39"/>
<polygon fill="black" stroke="black" points="529.843,-260.128 535.946,-251.467 525.774,-254.432 529.843,-260.128"/>
</g>
<!-- external_function_call -->
<g id="node19" class="node"><title>external_function_call</title>
<ellipse fill="none" stroke="black" cx="758" cy="-234" rx="89.5377" ry="18"/>
<text text-anchor="middle" x="758" y="-230.3" font-family="Times,serif" font-size="14.00">external_function_call</text>
</g>
<!-- composition&#45;&gt;external_function_call -->
<g id="edge22" class="edge"><title>composition&#45;&gt;external_function_call</title>
<path fill="none" stroke="black" d="M501.571,-293.988C509.336,-291.947 517.41,-289.871 525,-288 580.163,-274.404 642.987,-260.187 689.489,-249.904"/>
<polygon fill="black" stroke="black" points="690.441,-253.279 699.452,-247.706 688.933,-246.443 690.441,-253.279"/>
</g>
<!-- annotation -->
<g id="node20" class="node"><title>annotation</title>
<ellipse fill="none" stroke="black" cx="76" cy="-234" rx="48.1437" ry="18"/>
<text text-anchor="middle" x="76" y="-230.3" font-family="Times,serif" font-size="14.00">annotation</text>
</g>
<!-- composition&#45;&gt;annotation -->
<g id="edge23" class="edge"><title>composition&#45;&gt;annotation</title>
<path fill="none" stroke="black" d="M410.878,-298.957C346.203,-290.69 230.416,-274.299 133,-252 129.147,-251.118 125.171,-250.12 121.196,-249.059"/>
<polygon fill="black" stroke="black" points="121.959,-245.639 111.386,-246.328 120.081,-252.382 121.959,-245.639"/>
</g>
<!-- type_prefix -->
<g id="node13" class="node"><title>type_prefix</title>
<ellipse fill="none" stroke="black" cx="1043" cy="-234" rx="51.0191" ry="18"/>
<text text-anchor="middle" x="1043" y="-230.3" font-family="Times,serif" font-size="14.00">type_prefix</text>
</g>
<!-- base_prefix&#45;&gt;type_prefix -->
<g id="edge15" class="edge"><title>base_prefix&#45;&gt;type_prefix</title>
<path fill="none" stroke="black" d="M623.516,-293.5C631.228,-291.432 639.334,-289.47 647,-288 794.068,-259.804 834.932,-280.196 982,-252 986.494,-251.138 991.14,-250.107 995.769,-248.985"/>
<polygon fill="black" stroke="black" points="996.991,-252.285 1005.81,-246.412 995.254,-245.504 996.991,-252.285"/>
</g>
<!-- enumeration_literal -->
<g id="node14" class="node"><title>enumeration_literal</title>
<ellipse fill="none" stroke="black" cx="1238" cy="-90" rx="79.4147" ry="18"/>
<text text-anchor="middle" x="1238" y="-86.3" font-family="Times,serif" font-size="14.00">enumeration_literal</text>
</g>
<!-- enum_list&#45;&gt;enumeration_literal -->
<g id="edge16" class="edge"><title>enum_list&#45;&gt;enumeration_literal</title>
<path fill="none" stroke="black" d="M1256.95,-144.055C1254.13,-136.176 1250.72,-126.617 1247.57,-117.794"/>
<polygon fill="black" stroke="black" points="1250.83,-116.516 1244.17,-108.275 1244.24,-118.87 1250.83,-116.516"/>
</g>
<!-- enumeration_literal&#45;&gt;comment -->
<g id="edge17" class="edge"><title>enumeration_literal&#45;&gt;comment</title>
<path fill="none" stroke="black" d="M1224.93,-72.055C1218.26,-63.4175 1210.04,-52.7599 1202.72,-43.2681"/>
<polygon fill="black" stroke="black" points="1205.46,-41.087 1196.58,-35.307 1199.92,-45.3627 1205.46,-41.087"/>
</g>
<!-- element -->
<g id="node23" class="node"><title>element</title>
<ellipse fill="none" stroke="black" cx="920" cy="-162" rx="38.4949" ry="18"/>
<text text-anchor="middle" x="920" y="-158.3" font-family="Times,serif" font-size="14.00">element</text>
</g>
<!-- element_list&#45;&gt;element -->
<g id="edge26" class="edge"><title>element_list&#45;&gt;element</title>
<path fill="none" stroke="black" d="M920,-215.697C920,-207.983 920,-198.712 920,-190.112"/>
<polygon fill="black" stroke="black" points="923.5,-190.104 920,-180.104 916.5,-190.104 923.5,-190.104"/>
</g>
<!-- component_reference -->
<g id="node21" class="node"><title>component_reference</title>
<ellipse fill="none" stroke="black" cx="767" cy="-162" rx="87.1385" ry="18"/>
<text text-anchor="middle" x="767" y="-158.3" font-family="Times,serif" font-size="14.00">component_reference</text>
</g>
<!-- external_function_call&#45;&gt;component_reference -->
<g id="edge24" class="edge"><title>external_function_call&#45;&gt;component_reference</title>
<path fill="none" stroke="black" d="M760.225,-215.697C761.217,-207.983 762.408,-198.712 763.514,-190.112"/>
<polygon fill="black" stroke="black" points="766.997,-190.469 764.801,-180.104 760.054,-189.576 766.997,-190.469"/>
</g>
<!-- expression_list -->
<g id="node22" class="node"><title>expression_list</title>
<ellipse fill="none" stroke="black" cx="598" cy="-162" rx="63.5411" ry="18"/>
<text text-anchor="middle" x="598" y="-158.3" font-family="Times,serif" font-size="14.00">expression_list</text>
</g>
<!-- external_function_call&#45;&gt;expression_list -->
<g id="edge25" class="edge"><title>external_function_call&#45;&gt;expression_list</title>
<path fill="none" stroke="black" d="M722.491,-217.465C698.245,-206.857 666.005,-192.752 640.409,-181.554"/>
<polygon fill="black" stroke="black" points="641.52,-178.22 630.955,-177.418 638.714,-184.633 641.52,-178.22"/>
</g>
<!-- import_clause -->
<g id="node24" class="node"><title>import_clause</title>
<ellipse fill="none" stroke="black" cx="920" cy="-90" rx="61.1419" ry="18"/>
<text text-anchor="middle" x="920" y="-86.3" font-family="Times,serif" font-size="14.00">import_clause</text>
</g>
<!-- element&#45;&gt;import_clause -->
<g id="edge27" class="edge"><title>element&#45;&gt;import_clause</title>
<path fill="none" stroke="black" d="M920,-143.697C920,-135.983 920,-126.712 920,-118.112"/>
<polygon fill="black" stroke="black" points="923.5,-118.104 920,-108.104 916.5,-118.104 923.5,-118.104"/>
</g>
<!-- import_clause&#45;&gt;name -->
<g id="edge32" class="edge"><title>import_clause&#45;&gt;name</title>
<path fill="none" stroke="black" d="M866.01,-81.575C763.013,-67.4104 540.696,-36.8363 450.361,-24.4132"/>
<polygon fill="black" stroke="black" points="450.651,-20.9202 440.268,-23.025 449.698,-27.8549 450.651,-20.9202"/>
</g>
<!-- import_clause&#45;&gt;comment -->
<g id="edge34" class="edge"><title>import_clause&#45;&gt;comment</title>
<path fill="none" stroke="black" d="M963.891,-77.3623C1012.17,-64.5598 1089.4,-44.0822 1138.37,-31.0988"/>
<polygon fill="black" stroke="black" points="1139.3,-34.4732 1148.07,-28.527 1137.51,-27.707 1139.3,-34.4732"/>
</g>
<!-- import_list -->
<g id="node28" class="node"><title>import_list</title>
<ellipse fill="none" stroke="black" cx="920" cy="-18" rx="50.0684" ry="18"/>
<text text-anchor="middle" x="920" y="-14.3" font-family="Times,serif" font-size="14.00">import_list</text>
</g>
<!-- import_clause&#45;&gt;import_list -->
<g id="edge33" class="edge"><title>import_clause&#45;&gt;import_list</title>
<path fill="none" stroke="black" d="M920,-71.6966C920,-63.9827 920,-54.7125 920,-46.1124"/>
<polygon fill="black" stroke="black" points="923.5,-46.1043 920,-36.1043 916.5,-46.1044 923.5,-46.1043"/>
</g>
<!-- extends_clause -->
<g id="node25" class="node"><title>extends_clause</title>
<ellipse fill="none" stroke="black" cx="1406" cy="-522" rx="63.5411" ry="18"/>
<text text-anchor="middle" x="1406" y="-518.3" font-family="Times,serif" font-size="14.00">extends_clause</text>
</g>
<!-- extends_clause&#45;&gt;class_definition -->
<g id="edge28" class="edge"><title>extends_clause&#45;&gt;class_definition</title>
<path fill="none" stroke="black" d="M1361.72,-509.125C1317.19,-497.181 1248.4,-478.732 1200.3,-465.832"/>
<polygon fill="black" stroke="black" points="1200.93,-462.378 1190.37,-463.168 1199.12,-469.139 1200.93,-462.378"/>
</g>
<!-- extends_clause&#45;&gt;comment -->
<g id="edge31" class="edge"><title>extends_clause&#45;&gt;comment</title>
<path fill="none" stroke="black" d="M1393.39,-504.149C1386.44,-494.116 1378.19,-480.866 1373,-468 1357.86,-430.493 1354,-419.447 1354,-379 1354,-379 1354,-379 1354,-161 1354,-119.533 1354.54,-102.08 1326,-72 1302.24,-46.9618 1265.55,-33.6675 1235.41,-26.6557"/>
<polygon fill="black" stroke="black" points="1235.99,-23.199 1225.47,-24.5108 1234.51,-30.0415 1235.99,-23.199"/>
</g>
<!-- component_clause -->
<g id="node26" class="node"><title>component_clause</title>
<ellipse fill="none" stroke="black" cx="1459" cy="-450" rx="76.5394" ry="18"/>
<text text-anchor="middle" x="1459" y="-446.3" font-family="Times,serif" font-size="14.00">component_clause</text>
</g>
<!-- extends_clause&#45;&gt;component_clause -->
<g id="edge29" class="edge"><title>extends_clause&#45;&gt;component_clause</title>
<path fill="none" stroke="black" d="M1418.83,-504.055C1425.21,-495.629 1433.05,-485.28 1440.1,-475.966"/>
<polygon fill="black" stroke="black" points="1443.04,-477.874 1446.29,-467.789 1437.46,-473.649 1443.04,-477.874"/>
</g>
<!-- constraining_clause -->
<g id="node27" class="node"><title>constraining_clause</title>
<ellipse fill="none" stroke="black" cx="1634" cy="-450" rx="80.389" ry="18"/>
<text text-anchor="middle" x="1634" y="-446.3" font-family="Times,serif" font-size="14.00">constraining_clause</text>
</g>
<!-- extends_clause&#45;&gt;constraining_clause -->
<g id="edge30" class="edge"><title>extends_clause&#45;&gt;constraining_clause</title>
<path fill="none" stroke="black" d="M1447.29,-508.324C1484.16,-497.004 1538.44,-480.338 1578.99,-467.89"/>
<polygon fill="black" stroke="black" points="1580.19,-471.183 1588.72,-464.902 1578.13,-464.491 1580.19,-471.183"/>
</g>
<!-- import_list&#45;&gt;import_list -->
<g id="edge35" class="edge"><title>import_list&#45;&gt;import_list</title>
<path fill="none" stroke="black" d="M954.638,-31.0641C972.228,-32.9719 988,-28.6172 988,-18 988,-9.45648 977.787,-4.96806 964.633,-4.53473"/>
<polygon fill="black" stroke="black" points="964.49,-1.03755 954.638,-4.93588 964.771,-8.03192 964.49,-1.03755"/>
</g>
</g>
</svg>
