<?xml version="1.0" encoding="UTF-8" standalone="no"?>
<!DOCTYPE svg PUBLIC "-//W3C//DTD SVG 1.1//EN"
 "http://www.w3.org/Graphics/SVG/1.1/DTD/svg11.dtd">
<!-- Generated by graphviz version 2.36.0 (20140111.2315)
 -->
<!-- Title: component_clause Pages: 1 -->
<svg width="684pt" height="332pt"
 viewBox="0.00 0.00 684.00 332.00" xmlns="http://www.w3.org/2000/svg" xmlns:xlink="http://www.w3.org/1999/xlink">
<g id="graph0" class="graph" transform="scale(1 1) rotate(0) translate(4 328)">
<title>component_clause</title>
<polygon fill="white" stroke="none" points="-4,4 -4,-328 680,-328 680,4 -4,4"/>
<!-- component_clause -->
<g id="node1" class="node"><title>component_clause</title>
<ellipse fill="none" stroke="black" cx="225" cy="-306" rx="76.5394" ry="18"/>
<text text-anchor="middle" x="225" y="-302.3" font-family="Times,serif" font-size="14.00">component_clause</text>
</g>
<!-- type_prefix -->
<g id="node2" class="node"><title>type_prefix</title>
<ellipse fill="none" stroke="black" cx="51" cy="-234" rx="51.0191" ry="18"/>
<text text-anchor="middle" x="51" y="-230.3" font-family="Times,serif" font-size="14.00">type_prefix</text>
</g>
<!-- component_clause&#45;&gt;type_prefix -->
<g id="edge1" class="edge"><title>component_clause&#45;&gt;type_prefix</title>
<path fill="none" stroke="black" d="M188.099,-290.155C160.225,-278.941 121.944,-263.541 92.9152,-251.862"/>
<polygon fill="black" stroke="black" points="94.0376,-248.541 83.4539,-248.056 91.425,-255.036 94.0376,-248.541"/>
</g>
<!-- type_specifier -->
<g id="node3" class="node"><title>type_specifier</title>
<ellipse fill="none" stroke="black" cx="181" cy="-234" rx="60.1672" ry="18"/>
<text text-anchor="middle" x="181" y="-230.3" font-family="Times,serif" font-size="14.00">type_specifier</text>
</g>
<!-- component_clause&#45;&gt;type_specifier -->
<g id="edge2" class="edge"><title>component_clause&#45;&gt;type_specifier</title>
<path fill="none" stroke="black" d="M214.349,-288.055C209.16,-279.801 202.812,-269.701 197.052,-260.538"/>
<polygon fill="black" stroke="black" points="199.838,-258.393 191.553,-251.789 193.912,-262.118 199.838,-258.393"/>
</g>
<!-- array_subscripts -->
<g id="node4" class="node"><title>array_subscripts</title>
<ellipse fill="none" stroke="black" cx="269" cy="-18" rx="68.3664" ry="18"/>
<text text-anchor="middle" x="269" y="-14.3" font-family="Times,serif" font-size="14.00">array_subscripts</text>
</g>
<!-- component_clause&#45;&gt;array_subscripts -->
<g id="edge3" class="edge"><title>component_clause&#45;&gt;array_subscripts</title>
<path fill="none" stroke="black" d="M234.979,-287.936C240.389,-277.831 246.639,-264.581 250,-252 269.362,-179.525 270.67,-90.2417 269.9,-46.2036"/>
<polygon fill="black" stroke="black" points="273.395,-45.9382 269.67,-36.02 266.397,-46.0967 273.395,-45.9382"/>
</g>
<!-- component_list -->
<g id="node5" class="node"><title>component_list</title>
<ellipse fill="none" stroke="black" cx="394" cy="-234" rx="65.4659" ry="18"/>
<text text-anchor="middle" x="394" y="-230.3" font-family="Times,serif" font-size="14.00">component_list</text>
</g>
<!-- component_clause&#45;&gt;component_list -->
<g id="edge4" class="edge"><title>component_clause&#45;&gt;component_list</title>
<path fill="none" stroke="black" d="M261.255,-289.983C287.196,-279.239 322.259,-264.715 349.835,-253.293"/>
<polygon fill="black" stroke="black" points="351.35,-256.454 359.25,-249.394 348.671,-249.987 351.35,-256.454"/>
</g>
<!-- name -->
<g id="node6" class="node"><title>name</title>
<ellipse fill="none" stroke="black" cx="181" cy="-162" rx="30.3206" ry="18"/>
<text text-anchor="middle" x="181" y="-158.3" font-family="Times,serif" font-size="14.00">name</text>
</g>
<!-- type_specifier&#45;&gt;name -->
<g id="edge5" class="edge"><title>type_specifier&#45;&gt;name</title>
<path fill="none" stroke="black" d="M181,-215.697C181,-207.983 181,-198.712 181,-190.112"/>
<polygon fill="black" stroke="black" points="184.5,-190.104 181,-180.104 177.5,-190.104 184.5,-190.104"/>
</g>
<!-- component_declaration -->
<g id="node7" class="node"><title>component_declaration</title>
<ellipse fill="none" stroke="black" cx="425" cy="-162" rx="93.3873" ry="18"/>
<text text-anchor="middle" x="425" y="-158.3" font-family="Times,serif" font-size="14.00">component_declaration</text>
</g>
<!-- component_list&#45;&gt;component_declaration -->
<g id="edge6" class="edge"><title>component_list&#45;&gt;component_declaration</title>
<path fill="none" stroke="black" d="M401.504,-216.055C405.031,-208.091 409.318,-198.411 413.26,-189.51"/>
<polygon fill="black" stroke="black" points="416.5,-190.836 417.35,-180.275 410.1,-188.002 416.5,-190.836"/>
</g>
<!-- declaration -->
<g id="node8" class="node"><title>declaration</title>
<ellipse fill="none" stroke="black" cx="347" cy="-90" rx="50.0684" ry="18"/>
<text text-anchor="middle" x="347" y="-86.3" font-family="Times,serif" font-size="14.00">declaration</text>
</g>
<!-- component_declaration&#45;&gt;declaration -->
<g id="edge7" class="edge"><title>component_declaration&#45;&gt;declaration</title>
<path fill="none" stroke="black" d="M406.118,-144.055C396.032,-135.003 383.474,-123.733 372.53,-113.911"/>
<polygon fill="black" stroke="black" points="374.684,-111.142 364.904,-107.068 370.009,-116.352 374.684,-111.142"/>
</g>
<!-- comment -->
<g id="node9" class="node"><title>comment</title>
<ellipse fill="none" stroke="black" cx="459" cy="-90" rx="44.2946" ry="18"/>
<text text-anchor="middle" x="459" y="-86.3" font-family="Times,serif" font-size="14.00">comment</text>
</g>
<!-- component_declaration&#45;&gt;comment -->
<g id="edge8" class="edge"><title>component_declaration&#45;&gt;comment</title>
<path fill="none" stroke="black" d="M433.23,-144.055C437.198,-135.887 442.043,-125.912 446.457,-116.824"/>
<polygon fill="black" stroke="black" points="449.625,-118.313 450.845,-107.789 443.328,-115.255 449.625,-118.313"/>
</g>
<!-- condition_attribute -->
<g id="node10" class="node"><title>condition_attribute</title>
<ellipse fill="none" stroke="black" cx="599" cy="-90" rx="77.0154" ry="18"/>
<text text-anchor="middle" x="599" y="-86.3" font-family="Times,serif" font-size="14.00">condition_attribute</text>
</g>
<!-- component_declaration&#45;&gt;condition_attribute -->
<g id="edge9" class="edge"><title>component_declaration&#45;&gt;condition_attribute</title>
<path fill="none" stroke="black" d="M463.616,-145.465C489.858,-134.908 524.71,-120.887 552.481,-109.715"/>
<polygon fill="black" stroke="black" points="554.012,-112.871 561.983,-105.892 551.399,-106.377 554.012,-112.871"/>
</g>
<!-- declaration&#45;&gt;array_subscripts -->
<g id="edge11" class="edge"><title>declaration&#45;&gt;array_subscripts</title>
<path fill="none" stroke="black" d="M329.301,-73.1159C319.148,-64.0046 306.217,-52.4002 294.936,-42.2756"/>
<polygon fill="black" stroke="black" points="297.223,-39.6259 287.443,-35.5516 292.548,-44.8356 297.223,-39.6259"/>
</g>
<!-- modification -->
<g id="node12" class="node"><title>modification</title>
<ellipse fill="none" stroke="black" cx="411" cy="-18" rx="55.3436" ry="18"/>
<text text-anchor="middle" x="411" y="-14.3" font-family="Times,serif" font-size="14.00">modification</text>
</g>
<!-- declaration&#45;&gt;modification -->
<g id="edge12" class="edge"><title>declaration&#45;&gt;modification</title>
<path fill="none" stroke="black" d="M361.844,-72.7646C369.886,-63.9689 379.98,-52.9283 388.925,-43.144"/>
<polygon fill="black" stroke="black" points="391.628,-45.3754 395.792,-35.6334 386.461,-40.652 391.628,-45.3754"/>
</g>
<!-- expression -->
<g id="node11" class="node"><title>expression</title>
<ellipse fill="none" stroke="black" cx="599" cy="-18" rx="48.1437" ry="18"/>
<text text-anchor="middle" x="599" y="-14.3" font-family="Times,serif" font-size="14.00">expression</text>
</g>
<!-- condition_attribute&#45;&gt;expression -->
<g id="edge10" class="edge"><title>condition_attribute&#45;&gt;expression</title>
<path fill="none" stroke="black" d="M599,-71.6966C599,-63.9827 599,-54.7125 599,-46.1124"/>
<polygon fill="black" stroke="black" points="602.5,-46.1043 599,-36.1043 595.5,-46.1044 602.5,-46.1043"/>
</g>
</g>
</svg>
