<?xml version="1.0" encoding="UTF-8" standalone="no"?>
<!DOCTYPE svg PUBLIC "-//W3C//DTD SVG 1.1//EN"
 "http://www.w3.org/Graphics/SVG/1.1/DTD/svg11.dtd">
<!-- Generated by graphviz version 2.36.0 (20140111.2315)
 -->
<!-- Title: modification Pages: 1 -->
<svg width="1027pt" height="620pt"
 viewBox="0.00 0.00 1027.00 620.00" xmlns="http://www.w3.org/2000/svg" xmlns:xlink="http://www.w3.org/1999/xlink">
<g id="graph0" class="graph" transform="scale(1 1) rotate(0) translate(4 616)">
<title>modification</title>
<polygon fill="white" stroke="none" points="-4,4 -4,-616 1023,-616 1023,4 -4,4"/>
<!-- modification -->
<g id="node1" class="node"><title>modification</title>
<ellipse fill="none" stroke="black" cx="780" cy="-594" rx="55.3436" ry="18"/>
<text text-anchor="middle" x="780" y="-590.3" font-family="Times,serif" font-size="14.00">modification</text>
</g>
<!-- class_modification -->
<g id="node2" class="node"><title>class_modification</title>
<ellipse fill="none" stroke="black" cx="534" cy="-522" rx="77.0154" ry="18"/>
<text text-anchor="middle" x="534" y="-518.3" font-family="Times,serif" font-size="14.00">class_modification</text>
</g>
<!-- modification&#45;&gt;class_modification -->
<g id="edge1" class="edge"><title>modification&#45;&gt;class_modification</title>
<path fill="none" stroke="black" d="M739.654,-581.519C699.144,-569.992 636.372,-552.13 590.831,-539.171"/>
<polygon fill="black" stroke="black" points="591.676,-535.773 581.1,-536.402 589.76,-542.506 591.676,-535.773"/>
</g>
<!-- expression -->
<g id="node3" class="node"><title>expression</title>
<ellipse fill="none" stroke="black" cx="780" cy="-522" rx="48.1437" ry="18"/>
<text text-anchor="middle" x="780" y="-518.3" font-family="Times,serif" font-size="14.00">expression</text>
</g>
<!-- modification&#45;&gt;expression -->
<g id="edge2" class="edge"><title>modification&#45;&gt;expression</title>
<path fill="none" stroke="black" d="M780,-575.697C780,-567.983 780,-558.712 780,-550.112"/>
<polygon fill="black" stroke="black" points="783.5,-550.104 780,-540.104 776.5,-550.104 783.5,-550.104"/>
</g>
<!-- argument_list -->
<g id="node4" class="node"><title>argument_list</title>
<ellipse fill="none" stroke="black" cx="534" cy="-450" rx="59.1941" ry="18"/>
<text text-anchor="middle" x="534" y="-446.3" font-family="Times,serif" font-size="14.00">argument_list</text>
</g>
<!-- class_modification&#45;&gt;argument_list -->
<g id="edge3" class="edge"><title>class_modification&#45;&gt;argument_list</title>
<path fill="none" stroke="black" d="M534,-503.697C534,-495.983 534,-486.712 534,-478.112"/>
<polygon fill="black" stroke="black" points="537.5,-478.104 534,-468.104 530.5,-478.104 537.5,-478.104"/>
</g>
<!-- argument -->
<g id="node5" class="node"><title>argument</title>
<ellipse fill="none" stroke="black" cx="534" cy="-378" rx="44.2946" ry="18"/>
<text text-anchor="middle" x="534" y="-374.3" font-family="Times,serif" font-size="14.00">argument</text>
</g>
<!-- argument_list&#45;&gt;argument -->
<g id="edge4" class="edge"><title>argument_list&#45;&gt;argument</title>
<path fill="none" stroke="black" d="M534,-431.697C534,-423.983 534,-414.712 534,-406.112"/>
<polygon fill="black" stroke="black" points="537.5,-406.104 534,-396.104 530.5,-406.104 537.5,-406.104"/>
</g>
<!-- element_modification_or_replaceable -->
<g id="node6" class="node"><title>element_modification_or_replaceable</title>
<ellipse fill="none" stroke="black" cx="735" cy="-306" rx="144.406" ry="18"/>
<text text-anchor="middle" x="735" y="-302.3" font-family="Times,serif" font-size="14.00">element_modification_or_replaceable</text>
</g>
<!-- argument&#45;&gt;element_modification_or_replaceable -->
<g id="edge5" class="edge"><title>argument&#45;&gt;element_modification_or_replaceable</title>
<path fill="none" stroke="black" d="M566.741,-365.597C597.172,-355 643.117,-338.999 679.311,-326.394"/>
<polygon fill="black" stroke="black" points="680.47,-329.697 688.762,-323.103 678.168,-323.086 680.47,-329.697"/>
</g>
<!-- element_redeclaration -->
<g id="node7" class="node"><title>element_redeclaration</title>
<ellipse fill="none" stroke="black" cx="483" cy="-306" rx="89.0632" ry="18"/>
<text text-anchor="middle" x="483" y="-302.3" font-family="Times,serif" font-size="14.00">element_redeclaration</text>
</g>
<!-- argument&#45;&gt;element_redeclaration -->
<g id="edge6" class="edge"><title>argument&#45;&gt;element_redeclaration</title>
<path fill="none" stroke="black" d="M521.914,-360.411C515.78,-351.992 508.198,-341.585 501.361,-332.201"/>
<polygon fill="black" stroke="black" points="504.071,-329.978 495.354,-323.956 498.414,-334.1 504.071,-329.978"/>
</g>
<!-- element_modification -->
<g id="node8" class="node"><title>element_modification</title>
<ellipse fill="none" stroke="black" cx="908" cy="-234" rx="89.0632" ry="18"/>
<text text-anchor="middle" x="908" y="-230.3" font-family="Times,serif" font-size="14.00">element_modification</text>
</g>
<!-- element_modification_or_replaceable&#45;&gt;element_modification -->
<g id="edge7" class="edge"><title>element_modification_or_replaceable&#45;&gt;element_modification</title>
<path fill="none" stroke="black" d="M775.561,-288.588C801,-278.295 833.906,-264.98 860.554,-254.198"/>
<polygon fill="black" stroke="black" points="862.106,-257.346 870.063,-250.35 859.48,-250.857 862.106,-257.346"/>
</g>
<!-- element_replaceable -->
<g id="node9" class="node"><title>element_replaceable</title>
<ellipse fill="none" stroke="black" cx="602" cy="-234" rx="83.2892" ry="18"/>
<text text-anchor="middle" x="602" y="-230.3" font-family="Times,serif" font-size="14.00">element_replaceable</text>
</g>
<!-- element_modification_or_replaceable&#45;&gt;element_replaceable -->
<g id="edge8" class="edge"><title>element_modification_or_replaceable&#45;&gt;element_replaceable</title>
<path fill="none" stroke="black" d="M703.481,-288.411C684.913,-278.638 661.259,-266.189 641.459,-255.768"/>
<polygon fill="black" stroke="black" points="642.857,-252.548 632.377,-250.988 639.596,-258.743 642.857,-252.548"/>
</g>
<!-- element_redeclaration&#45;&gt;element_replaceable -->
<g id="edge13" class="edge"><title>element_redeclaration&#45;&gt;element_replaceable</title>
<path fill="none" stroke="black" d="M510.6,-288.765C526.971,-279.135 547.917,-266.814 565.625,-256.397"/>
<polygon fill="black" stroke="black" points="567.705,-259.234 574.55,-251.147 564.156,-253.201 567.705,-259.234"/>
</g>
<!-- short_class_definition -->
<g id="node11" class="node"><title>short_class_definition</title>
<ellipse fill="none" stroke="black" cx="339" cy="-162" rx="88.0886" ry="18"/>
<text text-anchor="middle" x="339" y="-158.3" font-family="Times,serif" font-size="14.00">short_class_definition</text>
</g>
<!-- element_redeclaration&#45;&gt;short_class_definition -->
<g id="edge11" class="edge"><title>element_redeclaration&#45;&gt;short_class_definition</title>
<path fill="none" stroke="black" d="M465.916,-288.153C440.475,-263.066 392.513,-215.77 363.389,-187.05"/>
<polygon fill="black" stroke="black" points="365.64,-184.354 356.062,-179.825 360.725,-189.339 365.64,-184.354"/>
</g>
<!-- component_clause1 -->
<g id="node12" class="node"><title>component_clause1</title>
<ellipse fill="none" stroke="black" cx="602" cy="-162" rx="81.3646" ry="18"/>
<text text-anchor="middle" x="602" y="-158.3" font-family="Times,serif" font-size="14.00">component_clause1</text>
</g>
<!-- element_redeclaration&#45;&gt;component_clause1 -->
<g id="edge12" class="edge"><title>element_redeclaration&#45;&gt;component_clause1</title>
<path fill="none" stroke="black" d="M484.439,-287.864C486.847,-268.554 493.227,-237.113 510,-216 521.31,-201.763 537.563,-190.629 553.271,-182.32"/>
<polygon fill="black" stroke="black" points="555.034,-185.352 562.415,-177.752 551.905,-179.09 555.034,-185.352"/>
</g>
<!-- element_modification&#45;&gt;modification -->
<g id="edge9" class="edge"><title>element_modification&#45;&gt;modification</title>
<path fill="none" stroke="black" d="M908,-252.049C908,-278.708 908,-331.885 908,-377 908,-451 908,-451 908,-451 908,-506.001 854.364,-549.297 816.532,-572.995"/>
<polygon fill="black" stroke="black" points="814.506,-570.131 807.774,-578.313 818.138,-576.115 814.506,-570.131"/>
</g>
<!-- string_comment -->
<g id="node10" class="node"><title>string_comment</title>
<ellipse fill="none" stroke="black" cx="949" cy="-162" rx="68.3417" ry="18"/>
<text text-anchor="middle" x="949" y="-158.3" font-family="Times,serif" font-size="14.00">string_comment</text>
</g>
<!-- element_modification&#45;&gt;string_comment -->
<g id="edge10" class="edge"><title>element_modification&#45;&gt;string_comment</title>
<path fill="none" stroke="black" d="M917.925,-216.055C922.689,-207.922 928.501,-197.998 933.805,-188.943"/>
<polygon fill="black" stroke="black" points="936.848,-190.673 938.882,-180.275 930.807,-187.135 936.848,-190.673"/>
</g>
<!-- element_replaceable&#45;&gt;short_class_definition -->
<g id="edge14" class="edge"><title>element_replaceable&#45;&gt;short_class_definition</title>
<path fill="none" stroke="black" d="M551.602,-219.586C508.525,-208.121 446.399,-191.585 400.421,-179.348"/>
<polygon fill="black" stroke="black" points="401.138,-175.917 390.574,-176.727 399.338,-182.681 401.138,-175.917"/>
</g>
<!-- element_replaceable&#45;&gt;component_clause1 -->
<g id="edge15" class="edge"><title>element_replaceable&#45;&gt;component_clause1</title>
<path fill="none" stroke="black" d="M602,-215.697C602,-207.983 602,-198.712 602,-190.112"/>
<polygon fill="black" stroke="black" points="605.5,-190.104 602,-180.104 598.5,-190.104 605.5,-190.104"/>
</g>
<!-- constraining_clause -->
<g id="node13" class="node"><title>constraining_clause</title>
<ellipse fill="none" stroke="black" cx="782" cy="-162" rx="80.389" ry="18"/>
<text text-anchor="middle" x="782" y="-158.3" font-family="Times,serif" font-size="14.00">constraining_clause</text>
</g>
<!-- element_replaceable&#45;&gt;constraining_clause -->
<g id="edge16" class="edge"><title>element_replaceable&#45;&gt;constraining_clause</title>
<path fill="none" stroke="black" d="M640.615,-217.983C667.993,-207.336 704.913,-192.978 734.159,-181.605"/>
<polygon fill="black" stroke="black" points="735.707,-184.758 743.759,-177.872 733.17,-178.234 735.707,-184.758"/>
</g>
<!-- short_class_definition&#45;&gt;class_modification -->
<g id="edge25" class="edge"><title>short_class_definition&#45;&gt;class_modification</title>
<path fill="none" stroke="black" d="M339.593,-180.047C340.467,-206.703 342,-259.875 342,-305 342,-379 342,-379 342,-379 342,-446.214 419.002,-485.246 475.477,-504.834"/>
<polygon fill="black" stroke="black" points="474.46,-508.184 485.054,-508.04 476.682,-501.547 474.46,-508.184"/>
</g>
<!-- comment -->
<g id="node18" class="node"><title>comment</title>
<ellipse fill="none" stroke="black" cx="465" cy="-18" rx="44.2946" ry="18"/>
<text text-anchor="middle" x="465" y="-14.3" font-family="Times,serif" font-size="14.00">comment</text>
</g>
<!-- short_class_definition&#45;&gt;comment -->
<g id="edge26" class="edge"><title>short_class_definition&#45;&gt;comment</title>
<path fill="none" stroke="black" d="M262.771,-152.931C190.639,-142.295 98.9258,-119.115 139,-72 173.236,-31.7481 327.159,-21.9836 410.68,-19.6713"/>
<polygon fill="black" stroke="black" points="410.84,-23.1685 420.75,-19.4192 410.665,-16.1707 410.84,-23.1685"/>
</g>
<!-- class_prefixes -->
<g id="node19" class="node"><title>class_prefixes</title>
<ellipse fill="none" stroke="black" cx="208" cy="-90" rx="60.1672" ry="18"/>
<text text-anchor="middle" x="208" y="-86.3" font-family="Times,serif" font-size="14.00">class_prefixes</text>
</g>
<!-- short_class_definition&#45;&gt;class_prefixes -->
<g id="edge22" class="edge"><title>short_class_definition&#45;&gt;class_prefixes</title>
<path fill="none" stroke="black" d="M308.946,-144.941C289.949,-134.79 265.26,-121.597 245.054,-110.8"/>
<polygon fill="black" stroke="black" points="246.591,-107.653 236.122,-106.027 243.292,-113.827 246.591,-107.653"/>
</g>
<!-- base_prefix -->
<g id="node20" class="node"><title>base_prefix</title>
<ellipse fill="none" stroke="black" cx="338" cy="-90" rx="51.4931" ry="18"/>
<text text-anchor="middle" x="338" y="-86.3" font-family="Times,serif" font-size="14.00">base_prefix</text>
</g>
<!-- short_class_definition&#45;&gt;base_prefix -->
<g id="edge23" class="edge"><title>short_class_definition&#45;&gt;base_prefix</title>
<path fill="none" stroke="black" d="M338.753,-143.697C338.643,-135.983 338.51,-126.712 338.387,-118.112"/>
<polygon fill="black" stroke="black" points="341.887,-118.053 338.244,-108.104 334.888,-118.153 341.887,-118.053"/>
</g>
<!-- array_subscripts -->
<g id="node21" class="node"><title>array_subscripts</title>
<ellipse fill="none" stroke="black" cx="476" cy="-90" rx="68.3664" ry="18"/>
<text text-anchor="middle" x="476" y="-86.3" font-family="Times,serif" font-size="14.00">array_subscripts</text>
</g>
<!-- short_class_definition&#45;&gt;array_subscripts -->
<g id="edge24" class="edge"><title>short_class_definition&#45;&gt;array_subscripts</title>
<path fill="none" stroke="black" d="M370.087,-145.116C389.893,-134.996 415.718,-121.801 436.909,-110.974"/>
<polygon fill="black" stroke="black" points="438.665,-114.007 445.977,-106.34 435.48,-107.773 438.665,-114.007"/>
</g>
<!-- enum_list -->
<g id="node22" class="node"><title>enum_list</title>
<ellipse fill="none" stroke="black" cx="46" cy="-90" rx="46.2191" ry="18"/>
<text text-anchor="middle" x="46" y="-86.3" font-family="Times,serif" font-size="14.00">enum_list</text>
</g>
<!-- short_class_definition&#45;&gt;enum_list -->
<g id="edge27" class="edge"><title>short_class_definition&#45;&gt;enum_list</title>
<path fill="none" stroke="black" d="M279.903,-148.454C232.681,-138.214 164.888,-123.029 106,-108 101.328,-106.808 96.4666,-105.516 91.6221,-104.195"/>
<polygon fill="black" stroke="black" points="92.3401,-100.762 81.7687,-101.466 90.4718,-107.508 92.3401,-100.762"/>
</g>
<!-- type_prefix -->
<g id="node14" class="node"><title>type_prefix</title>
<ellipse fill="none" stroke="black" cx="614" cy="-90" rx="51.0191" ry="18"/>
<text text-anchor="middle" x="614" y="-86.3" font-family="Times,serif" font-size="14.00">type_prefix</text>
</g>
<!-- component_clause1&#45;&gt;type_prefix -->
<g id="edge17" class="edge"><title>component_clause1&#45;&gt;type_prefix</title>
<path fill="none" stroke="black" d="M604.966,-143.697C606.289,-135.983 607.878,-126.712 609.352,-118.112"/>
<polygon fill="black" stroke="black" points="612.828,-118.552 611.068,-108.104 605.928,-117.369 612.828,-118.552"/>
</g>
<!-- type_specifier -->
<g id="node15" class="node"><title>type_specifier</title>
<ellipse fill="none" stroke="black" cx="744" cy="-90" rx="60.1672" ry="18"/>
<text text-anchor="middle" x="744" y="-86.3" font-family="Times,serif" font-size="14.00">type_specifier</text>
</g>
<!-- component_clause1&#45;&gt;type_specifier -->
<g id="edge18" class="edge"><title>component_clause1&#45;&gt;type_specifier</title>
<path fill="none" stroke="black" d="M633.868,-145.291C654.903,-134.921 682.603,-121.266 704.96,-110.245"/>
<polygon fill="black" stroke="black" points="706.758,-113.261 714.179,-105.7 703.662,-106.983 706.758,-113.261"/>
</g>
<!-- component_declaration1 -->
<g id="node16" class="node"><title>component_declaration1</title>
<ellipse fill="none" stroke="black" cx="921" cy="-90" rx="98.212" ry="18"/>
<text text-anchor="middle" x="921" y="-86.3" font-family="Times,serif" font-size="14.00">component_declaration1</text>
</g>
<!-- component_clause1&#45;&gt;component_declaration1 -->
<g id="edge19" class="edge"><title>component_clause1&#45;&gt;component_declaration1</title>
<path fill="none" stroke="black" d="M657.566,-148.807C711.226,-137.032 792.687,-119.157 850.805,-106.403"/>
<polygon fill="black" stroke="black" points="851.63,-109.806 860.647,-104.244 850.129,-102.968 851.63,-109.806"/>
</g>
<!-- declaration -->
<g id="node17" class="node"><title>declaration</title>
<ellipse fill="none" stroke="black" cx="921" cy="-18" rx="50.0684" ry="18"/>
<text text-anchor="middle" x="921" y="-14.3" font-family="Times,serif" font-size="14.00">declaration</text>
</g>
<!-- component_declaration1&#45;&gt;declaration -->
<g id="edge20" class="edge"><title>component_declaration1&#45;&gt;declaration</title>
<path fill="none" stroke="black" d="M921,-71.6966C921,-63.9827 921,-54.7125 921,-46.1124"/>
<polygon fill="black" stroke="black" points="924.5,-46.1043 921,-36.1043 917.5,-46.1044 924.5,-46.1043"/>
</g>
<!-- component_declaration1&#45;&gt;comment -->
<g id="edge21" class="edge"><title>component_declaration1&#45;&gt;comment</title>
<path fill="none" stroke="black" d="M849.262,-77.6566C837.16,-75.7576 824.723,-73.8154 813,-72 707.302,-55.6324 583.476,-36.873 515.711,-26.6421"/>
<polygon fill="black" stroke="black" points="516.138,-23.1671 505.728,-25.1354 515.093,-30.0887 516.138,-23.1671"/>
</g>
</g>
</svg>
