<?xml version="1.0" encoding="UTF-8" standalone="no"?>
<!DOCTYPE svg PUBLIC "-//W3C//DTD SVG 1.1//EN"
 "http://www.w3.org/Graphics/SVG/1.1/DTD/svg11.dtd">
<!-- Generated by graphviz version 2.36.0 (20140111.2315)
 -->
<!-- Title: stored_definition Pages: 1 -->
<svg width="219pt" height="116pt"
 viewBox="0.00 0.00 219.00 116.00" xmlns="http://www.w3.org/2000/svg" xmlns:xlink="http://www.w3.org/1999/xlink">
<g id="graph0" class="graph" transform="scale(1 1) rotate(0) translate(4 112)">
<title>stored_definition</title>
<polygon fill="white" stroke="none" points="-4,4 -4,-112 215,-112 215,4 -4,4"/>
<!-- stored_definition -->
<g id="node1" class="node"><title>stored_definition</title>
<ellipse fill="none" stroke="black" cx="87" cy="-90" rx="70.2668" ry="18"/>
<text text-anchor="middle" x="87" y="-86.3" font-family="Times,serif" font-size="14.00">stored_definition</text>
</g>
<!-- name -->
<g id="node2" class="node"><title>name</title>
<ellipse fill="none" stroke="black" cx="30" cy="-18" rx="30.3206" ry="18"/>
<text text-anchor="middle" x="30" y="-14.3" font-family="Times,serif" font-size="14.00">name</text>
</g>
<!-- stored_definition&#45;&gt;name -->
<g id="edge1" class="edge"><title>stored_definition&#45;&gt;name</title>
<path fill="none" stroke="black" d="M73.2019,-72.055C66.0666,-63.2923 57.2383,-52.4505 49.4257,-42.8561"/>
<polygon fill="black" stroke="black" points="51.918,-40.3738 42.8897,-34.8294 46.4899,-44.7938 51.918,-40.3738"/>
</g>
<!-- class_definition -->
<g id="node3" class="node"><title>class_definition</title>
<ellipse fill="none" stroke="black" cx="145" cy="-18" rx="65.9423" ry="18"/>
<text text-anchor="middle" x="145" y="-14.3" font-family="Times,serif" font-size="14.00">class_definition</text>
</g>
<!-- stored_definition&#45;&gt;class_definition -->
<g id="edge2" class="edge"><title>stored_definition&#45;&gt;class_definition</title>
<path fill="none" stroke="black" d="M101.04,-72.055C108.093,-63.5427 116.772,-53.0684 124.55,-43.6815"/>
<polygon fill="black" stroke="black" points="127.404,-45.7223 131.089,-35.789 122.014,-41.2562 127.404,-45.7223"/>
</g>
</g>
</svg>
