<?xml version="1.0" encoding="UTF-8" standalone="no"?>
<!DOCTYPE svg PUBLIC "-//W3C//DTD SVG 1.1//EN"
 "http://www.w3.org/Graphics/SVG/1.1/DTD/svg11.dtd">
<!-- Generated by graphviz version 2.36.0 (20140111.2315)
 -->
<!-- Title: equations Pages: 1 -->
<svg width="1925pt" height="404pt"
 viewBox="0.00 0.00 1924.79 404.00" xmlns="http://www.w3.org/2000/svg" xmlns:xlink="http://www.w3.org/1999/xlink">
<g id="graph0" class="graph" transform="scale(1 1) rotate(0) translate(4 400)">
<title>equations</title>
<polygon fill="white" stroke="none" points="-4,4 -4,-400 1920.79,-400 1920.79,4 -4,4"/>
<!-- equation_section -->
<g id="node1" class="node"><title>equation_section</title>
<ellipse fill="none" stroke="black" cx="427.79" cy="-378" rx="70.2909" ry="18"/>
<text text-anchor="middle" x="427.79" y="-374.3" font-family="Times,serif" font-size="14.00">equation_section</text>
</g>
<!-- equation -->
<g id="node2" class="node"><title>equation</title>
<ellipse fill="none" stroke="black" cx="427.79" cy="-306" rx="40.4202" ry="18"/>
<text text-anchor="middle" x="427.79" y="-302.3" font-family="Times,serif" font-size="14.00">equation</text>
</g>
<!-- equation_section&#45;&gt;equation -->
<g id="edge1" class="edge"><title>equation_section&#45;&gt;equation</title>
<path fill="none" stroke="black" d="M427.79,-359.697C427.79,-351.983 427.79,-342.712 427.79,-334.112"/>
<polygon fill="black" stroke="black" points="431.29,-334.104 427.79,-324.104 424.29,-334.104 431.29,-334.104"/>
</g>
<!-- simple_expression -->
<g id="node5" class="node"><title>simple_expression</title>
<ellipse fill="none" stroke="black" cx="93.79" cy="-234" rx="76.5394" ry="18"/>
<text text-anchor="middle" x="93.79" y="-230.3" font-family="Times,serif" font-size="14.00">simple_expression</text>
</g>
<!-- equation&#45;&gt;simple_expression -->
<g id="edge3" class="edge"><title>equation&#45;&gt;simple_expression</title>
<path fill="none" stroke="black" d="M392.046,-297.509C336.468,-285.861 228.494,-263.231 158.843,-248.634"/>
<polygon fill="black" stroke="black" points="159.361,-245.166 148.856,-246.541 157.925,-252.018 159.361,-245.166"/>
</g>
<!-- expression -->
<g id="node6" class="node"><title>expression</title>
<ellipse fill="none" stroke="black" cx="1243.79" cy="-18" rx="48.1437" ry="18"/>
<text text-anchor="middle" x="1243.79" y="-14.3" font-family="Times,serif" font-size="14.00">expression</text>
</g>
<!-- equation&#45;&gt;expression -->
<g id="edge4" class="edge"><title>equation&#45;&gt;expression</title>
<path fill="none" stroke="black" d="M387.757,-302.912C287.661,-297.284 32.7313,-280.287 7.78995,-252 -2.79186,-239.999 -2.32336,-228.398 7.78995,-216 158.623,-31.0865 960.459,-18.4591 1185.2,-18.6025"/>
<polygon fill="black" stroke="black" points="1185.45,-22.1028 1195.46,-18.6184 1185.46,-15.1028 1185.45,-22.1028"/>
</g>
<!-- if_equation -->
<g id="node7" class="node"><title>if_equation</title>
<ellipse fill="none" stroke="black" cx="238.79" cy="-234" rx="50.5427" ry="18"/>
<text text-anchor="middle" x="238.79" y="-230.3" font-family="Times,serif" font-size="14.00">if_equation</text>
</g>
<!-- equation&#45;&gt;if_equation -->
<g id="edge5" class="edge"><title>equation&#45;&gt;if_equation</title>
<path fill="none" stroke="black" d="M395.38,-294.821C363.104,-283.626 313.709,-265.451 278.981,-252.068"/>
<polygon fill="black" stroke="black" points="280.19,-248.783 269.602,-248.43 277.659,-255.309 280.19,-248.783"/>
</g>
<!-- for_equation -->
<g id="node8" class="node"><title>for_equation</title>
<ellipse fill="none" stroke="black" cx="588.79" cy="-234" rx="55.3436" ry="18"/>
<text text-anchor="middle" x="588.79" y="-230.3" font-family="Times,serif" font-size="14.00">for_equation</text>
</g>
<!-- equation&#45;&gt;for_equation -->
<g id="edge6" class="edge"><title>equation&#45;&gt;for_equation</title>
<path fill="none" stroke="black" d="M453.017,-291.669C477.332,-280.407 514.434,-264.21 543.771,-252.014"/>
<polygon fill="black" stroke="black" points="545.484,-255.094 553.393,-248.045 542.814,-248.623 545.484,-255.094"/>
</g>
<!-- connect_clause -->
<g id="node9" class="node"><title>connect_clause</title>
<ellipse fill="none" stroke="black" cx="726.79" cy="-234" rx="64.0172" ry="18"/>
<text text-anchor="middle" x="726.79" y="-230.3" font-family="Times,serif" font-size="14.00">connect_clause</text>
</g>
<!-- equation&#45;&gt;connect_clause -->
<g id="edge7" class="edge"><title>equation&#45;&gt;connect_clause</title>
<path fill="none" stroke="black" d="M462.674,-296.833C513.383,-284.961 608.06,-262.796 669.208,-248.481"/>
<polygon fill="black" stroke="black" points="670.157,-251.853 679.095,-246.166 668.561,-245.038 670.157,-251.853"/>
</g>
<!-- when_equation -->
<g id="node10" class="node"><title>when_equation</title>
<ellipse fill="none" stroke="black" cx="371.79" cy="-234" rx="64.0172" ry="18"/>
<text text-anchor="middle" x="371.79" y="-230.3" font-family="Times,serif" font-size="14.00">when_equation</text>
</g>
<!-- equation&#45;&gt;when_equation -->
<g id="edge8" class="edge"><title>equation&#45;&gt;when_equation</title>
<path fill="none" stroke="black" d="M409.96,-289.811C402.048,-281.227 393.004,-270.273 385.604,-260.418"/>
<polygon fill="black" stroke="black" points="388.297,-258.169 379.594,-252.127 382.629,-262.277 388.297,-258.169"/>
</g>
<!-- name -->
<g id="node11" class="node"><title>name</title>
<ellipse fill="none" stroke="black" cx="484.79" cy="-234" rx="30.3206" ry="18"/>
<text text-anchor="middle" x="484.79" y="-230.3" font-family="Times,serif" font-size="14.00">name</text>
</g>
<!-- equation&#45;&gt;name -->
<g id="edge9" class="edge"><title>equation&#45;&gt;name</title>
<path fill="none" stroke="black" d="M441.01,-288.765C448.307,-279.804 457.501,-268.512 465.578,-258.594"/>
<polygon fill="black" stroke="black" points="468.433,-260.63 472.034,-250.666 463.005,-256.21 468.433,-260.63"/>
</g>
<!-- function_call_args -->
<g id="node12" class="node"><title>function_call_args</title>
<ellipse fill="none" stroke="black" cx="884.79" cy="-234" rx="76.0649" ry="18"/>
<text text-anchor="middle" x="884.79" y="-230.3" font-family="Times,serif" font-size="14.00">function_call_args</text>
</g>
<!-- equation&#45;&gt;function_call_args -->
<g id="edge10" class="edge"><title>equation&#45;&gt;function_call_args</title>
<path fill="none" stroke="black" d="M466.19,-300.248C533.798,-291.722 678.422,-272.766 799.79,-252 806.117,-250.917 812.696,-249.724 819.267,-248.486"/>
<polygon fill="black" stroke="black" points="820.387,-251.835 829.548,-246.514 819.068,-244.96 820.387,-251.835"/>
</g>
<!-- comment -->
<g id="node13" class="node"><title>comment</title>
<ellipse fill="none" stroke="black" cx="1022.79" cy="-234" rx="44.2946" ry="18"/>
<text text-anchor="middle" x="1022.79" y="-230.3" font-family="Times,serif" font-size="14.00">comment</text>
</g>
<!-- equation&#45;&gt;comment -->
<g id="edge11" class="edge"><title>equation&#45;&gt;comment</title>
<path fill="none" stroke="black" d="M468.347,-303.977C559.099,-301.049 785.079,-290.199 969.79,-252 973.46,-251.241 977.234,-250.322 980.997,-249.309"/>
<polygon fill="black" stroke="black" points="982.221,-252.598 990.851,-246.451 980.272,-245.875 982.221,-252.598"/>
</g>
<!-- algorithm_section -->
<g id="node3" class="node"><title>algorithm_section</title>
<ellipse fill="none" stroke="black" cx="1329.79" cy="-378" rx="74.6146" ry="18"/>
<text text-anchor="middle" x="1329.79" y="-374.3" font-family="Times,serif" font-size="14.00">algorithm_section</text>
</g>
<!-- statement -->
<g id="node4" class="node"><title>statement</title>
<ellipse fill="none" stroke="black" cx="1329.79" cy="-306" rx="44.271" ry="18"/>
<text text-anchor="middle" x="1329.79" y="-302.3" font-family="Times,serif" font-size="14.00">statement</text>
</g>
<!-- algorithm_section&#45;&gt;statement -->
<g id="edge2" class="edge"><title>algorithm_section&#45;&gt;statement</title>
<path fill="none" stroke="black" d="M1329.79,-359.697C1329.79,-351.983 1329.79,-342.712 1329.79,-334.112"/>
<polygon fill="black" stroke="black" points="1333.29,-334.104 1329.79,-324.104 1326.29,-334.104 1333.29,-334.104"/>
</g>
<!-- statement&#45;&gt;expression -->
<g id="edge13" class="edge"><title>statement&#45;&gt;expression</title>
<path fill="none" stroke="black" d="M1373.53,-302.852C1478.02,-297.274 1735.38,-280.728 1760.79,-252 1771.39,-240.016 1769.74,-229.262 1760.79,-216 1656.57,-61.5893 1413.53,-28.072 1301.83,-20.8956"/>
<polygon fill="black" stroke="black" points="1301.95,-17.3967 1291.76,-20.2977 1301.53,-24.3844 1301.95,-17.3967"/>
</g>
<!-- statement&#45;&gt;function_call_args -->
<g id="edge14" class="edge"><title>statement&#45;&gt;function_call_args</title>
<path fill="none" stroke="black" d="M1288.1,-299.569C1220.93,-290.658 1084.63,-271.924 969.79,-252 963.465,-250.903 956.888,-249.699 950.318,-248.455"/>
<polygon fill="black" stroke="black" points="950.519,-244.93 940.038,-246.476 949.196,-251.803 950.519,-244.93"/>
</g>
<!-- statement&#45;&gt;comment -->
<g id="edge20" class="edge"><title>statement&#45;&gt;comment</title>
<path fill="none" stroke="black" d="M1289.89,-298.012C1239.61,-288.901 1150.71,-271.773 1075.79,-252 1072.42,-251.11 1068.94,-250.133 1065.46,-249.111"/>
<polygon fill="black" stroke="black" points="1066.3,-245.707 1055.71,-246.148 1064.26,-252.405 1066.3,-245.707"/>
</g>
<!-- component_reference -->
<g id="node14" class="node"><title>component_reference</title>
<ellipse fill="none" stroke="black" cx="1214.79" cy="-162" rx="87.1385" ry="18"/>
<text text-anchor="middle" x="1214.79" y="-158.3" font-family="Times,serif" font-size="14.00">component_reference</text>
</g>
<!-- statement&#45;&gt;component_reference -->
<g id="edge12" class="edge"><title>statement&#45;&gt;component_reference</title>
<path fill="none" stroke="black" d="M1302.6,-291.74C1286.06,-282.523 1265.55,-268.877 1251.79,-252 1236.98,-233.835 1227.3,-208.905 1221.57,-190.051"/>
<polygon fill="black" stroke="black" points="1224.89,-188.94 1218.79,-180.283 1218.16,-190.859 1224.89,-188.94"/>
</g>
<!-- output_expression_list -->
<g id="node15" class="node"><title>output_expression_list</title>
<ellipse fill="none" stroke="black" cx="1506.79" cy="-234" rx="90.0136" ry="18"/>
<text text-anchor="middle" x="1506.79" y="-230.3" font-family="Times,serif" font-size="14.00">output_expression_list</text>
</g>
<!-- statement&#45;&gt;output_expression_list -->
<g id="edge15" class="edge"><title>statement&#45;&gt;output_expression_list</title>
<path fill="none" stroke="black" d="M1360.62,-292.807C1387.64,-282.122 1427.36,-266.414 1458.58,-254.068"/>
<polygon fill="black" stroke="black" points="1459.96,-257.286 1467.97,-250.354 1457.38,-250.777 1459.96,-257.286"/>
</g>
<!-- if_statement -->
<g id="node16" class="node"><title>if_statement</title>
<ellipse fill="none" stroke="black" cx="1862.79" cy="-234" rx="54.3924" ry="18"/>
<text text-anchor="middle" x="1862.79" y="-230.3" font-family="Times,serif" font-size="14.00">if_statement</text>
</g>
<!-- statement&#45;&gt;if_statement -->
<g id="edge16" class="edge"><title>statement&#45;&gt;if_statement</title>
<path fill="none" stroke="black" d="M1373.1,-301.496C1454.37,-294.936 1634.56,-278.972 1784.79,-252 1792.65,-250.59 1800.94,-248.806 1809.09,-246.929"/>
<polygon fill="black" stroke="black" points="1809.99,-250.312 1818.92,-244.61 1808.39,-243.498 1809.99,-250.312"/>
</g>
<!-- for_statement -->
<g id="node17" class="node"><title>for_statement</title>
<ellipse fill="none" stroke="black" cx="1144.79" cy="-234" rx="59.1941" ry="18"/>
<text text-anchor="middle" x="1144.79" y="-230.3" font-family="Times,serif" font-size="14.00">for_statement</text>
</g>
<!-- statement&#45;&gt;for_statement -->
<g id="edge17" class="edge"><title>statement&#45;&gt;for_statement</title>
<path fill="none" stroke="black" d="M1295.82,-294.062C1264.89,-283.073 1219.33,-265.95 1186.29,-252.965"/>
<polygon fill="black" stroke="black" points="1187.48,-249.672 1176.89,-249.25 1184.9,-256.182 1187.48,-249.672"/>
</g>
<!-- while_statement -->
<g id="node18" class="node"><title>while_statement</title>
<ellipse fill="none" stroke="black" cx="1329.79" cy="-234" rx="68.3417" ry="18"/>
<text text-anchor="middle" x="1329.79" y="-230.3" font-family="Times,serif" font-size="14.00">while_statement</text>
</g>
<!-- statement&#45;&gt;while_statement -->
<g id="edge18" class="edge"><title>statement&#45;&gt;while_statement</title>
<path fill="none" stroke="black" d="M1323.91,-288.055C1323.09,-280.346 1322.85,-271.027 1323.18,-262.364"/>
<polygon fill="black" stroke="black" points="1326.68,-262.491 1323.88,-252.275 1319.7,-262.012 1326.68,-262.491"/>
</g>
<!-- when_statement -->
<g id="node19" class="node"><title>when_statement</title>
<ellipse fill="none" stroke="black" cx="1683.79" cy="-234" rx="68.3664" ry="18"/>
<text text-anchor="middle" x="1683.79" y="-230.3" font-family="Times,serif" font-size="14.00">when_statement</text>
</g>
<!-- statement&#45;&gt;when_statement -->
<g id="edge19" class="edge"><title>statement&#45;&gt;when_statement</title>
<path fill="none" stroke="black" d="M1368.43,-296.713C1420.48,-286.561 1515.53,-268.654 1596.79,-252 1604.24,-250.474 1612.07,-248.821 1619.88,-247.167"/>
<polygon fill="black" stroke="black" points="1620.66,-250.579 1629.72,-245.079 1619.21,-243.731 1620.66,-250.579"/>
</g>
<!-- if_equation&#45;&gt;equation -->
<g id="edge22" class="edge"><title>if_equation&#45;&gt;equation</title>
<path fill="none" stroke="black" d="M275.25,-246.589C308.514,-258.21 357.258,-276.19 390.707,-289.133"/>
<polygon fill="black" stroke="black" points="389.547,-292.437 400.136,-292.807 392.089,-285.915 389.547,-292.437"/>
</g>
<!-- if_equation&#45;&gt;expression -->
<g id="edge21" class="edge"><title>if_equation&#45;&gt;expression</title>
<path fill="none" stroke="black" d="M276.645,-221.962C375.011,-193.608 647.089,-117.274 877.79,-72 987.08,-50.5522 1116.31,-33.8356 1188.27,-25.2863"/>
<polygon fill="black" stroke="black" points="1188.95,-28.7314 1198.47,-24.0846 1188.13,-21.7796 1188.95,-28.7314"/>
</g>
<!-- for_equation&#45;&gt;equation -->
<g id="edge26" class="edge"><title>for_equation&#45;&gt;equation</title>
<path fill="none" stroke="black" d="M560.891,-249.565C535.141,-261.42 496.819,-278.089 467.831,-290.047"/>
<polygon fill="black" stroke="black" points="466.321,-286.883 458.39,-293.908 468.97,-293.362 466.321,-286.883"/>
</g>
<!-- for_indices -->
<g id="node20" class="node"><title>for_indices</title>
<ellipse fill="none" stroke="black" cx="1059.79" cy="-162" rx="50.0684" ry="18"/>
<text text-anchor="middle" x="1059.79" y="-158.3" font-family="Times,serif" font-size="14.00">for_indices</text>
</g>
<!-- for_equation&#45;&gt;for_indices -->
<g id="edge25" class="edge"><title>for_equation&#45;&gt;for_indices</title>
<path fill="none" stroke="black" d="M629.177,-221.596C637.285,-219.545 645.776,-217.565 653.79,-216 776.478,-192.047 922.191,-175.993 1001.4,-168.288"/>
<polygon fill="black" stroke="black" points="1002.04,-171.743 1011.66,-167.301 1001.37,-164.775 1002.04,-171.743"/>
</g>
<!-- connect_clause&#45;&gt;component_reference -->
<g id="edge37" class="edge"><title>connect_clause&#45;&gt;component_reference</title>
<path fill="none" stroke="black" d="M772.966,-221.392C781.831,-219.406 791.07,-217.502 799.79,-216 940.397,-191.779 977.585,-200.449 1118.79,-180 1126.45,-178.891 1134.43,-177.637 1142.38,-176.323"/>
<polygon fill="black" stroke="black" points="1143.12,-179.748 1152.4,-174.635 1141.95,-172.845 1143.12,-179.748"/>
</g>
<!-- when_equation&#45;&gt;equation -->
<g id="edge34" class="edge"><title>when_equation&#45;&gt;equation</title>
<path fill="none" stroke="black" d="M390.644,-251.307C398.346,-259.756 406.986,-270.262 414.09,-279.735"/>
<polygon fill="black" stroke="black" points="411.414,-282.006 420.112,-288.055 417.084,-277.902 411.414,-282.006"/>
</g>
<!-- when_equation&#45;&gt;expression -->
<g id="edge33" class="edge"><title>when_equation&#45;&gt;expression</title>
<path fill="none" stroke="black" d="M418.364,-221.57C568.785,-184.655 1040.75,-68.828 1194.7,-31.0476"/>
<polygon fill="black" stroke="black" points="1195.92,-34.3515 1204.8,-28.5688 1194.25,-27.5532 1195.92,-34.3515"/>
</g>
<!-- if_statement&#45;&gt;statement -->
<g id="edge24" class="edge"><title>if_statement&#45;&gt;statement</title>
<path fill="none" stroke="black" d="M1825.45,-247.249C1817.99,-249.009 1810.2,-250.67 1802.79,-252 1652.33,-279.013 1471.82,-294.984 1383.54,-301.526"/>
<polygon fill="black" stroke="black" points="1383.21,-298.04 1373.49,-302.258 1383.72,-305.022 1383.21,-298.04"/>
</g>
<!-- if_statement&#45;&gt;expression -->
<g id="edge23" class="edge"><title>if_statement&#45;&gt;expression</title>
<path fill="none" stroke="black" d="M1861.06,-215.891C1856.64,-182.086 1841.67,-106.983 1793.79,-72 1754.68,-43.4227 1434.89,-26.9464 1301.68,-21.266"/>
<polygon fill="black" stroke="black" points="1301.8,-17.7678 1291.66,-20.844 1301.51,-24.7616 1301.8,-17.7678"/>
</g>
<!-- for_statement&#45;&gt;statement -->
<g id="edge28" class="edge"><title>for_statement&#45;&gt;statement</title>
<path fill="none" stroke="black" d="M1183.86,-247.758C1215.73,-259.178 1260.33,-275.994 1291.88,-288.447"/>
<polygon fill="black" stroke="black" points="1290.64,-291.72 1301.22,-292.161 1293.22,-285.215 1290.64,-291.72"/>
</g>
<!-- for_statement&#45;&gt;for_indices -->
<g id="edge27" class="edge"><title>for_statement&#45;&gt;for_indices</title>
<path fill="none" stroke="black" d="M1125.08,-216.765C1113.65,-207.355 1099.11,-195.378 1086.65,-185.117"/>
<polygon fill="black" stroke="black" points="1088.76,-182.321 1078.81,-178.666 1084.31,-187.725 1088.76,-182.321"/>
</g>
<!-- while_statement&#45;&gt;statement -->
<g id="edge32" class="edge"><title>while_statement&#45;&gt;statement</title>
<path fill="none" stroke="black" d="M1335.7,-252.275C1336.5,-260.03 1336.73,-269.362 1336.38,-278.005"/>
<polygon fill="black" stroke="black" points="1332.88,-277.832 1335.67,-288.055 1339.87,-278.327 1332.88,-277.832"/>
</g>
<!-- while_statement&#45;&gt;expression -->
<g id="edge31" class="edge"><title>while_statement&#45;&gt;expression</title>
<path fill="none" stroke="black" d="M1327.6,-215.871C1324.93,-197.651 1319.65,-168.182 1310.79,-144 1297.5,-107.714 1275.32,-68.937 1260.15,-44.362"/>
<polygon fill="black" stroke="black" points="1262.98,-42.2931 1254.71,-35.6736 1257.05,-46.007 1262.98,-42.2931"/>
</g>
<!-- when_statement&#45;&gt;statement -->
<g id="edge36" class="edge"><title>when_statement&#45;&gt;statement</title>
<path fill="none" stroke="black" d="M1637.35,-247.243C1629.83,-248.872 1622.12,-250.497 1614.79,-252 1533.17,-268.727 1437.65,-286.719 1380.4,-296.847"/>
<polygon fill="black" stroke="black" points="1379.76,-293.406 1370.52,-298.584 1380.97,-300.3 1379.76,-293.406"/>
</g>
<!-- when_statement&#45;&gt;expression -->
<g id="edge35" class="edge"><title>when_statement&#45;&gt;expression</title>
<path fill="none" stroke="black" d="M1652.85,-217.952C1574.04,-179.621 1365.96,-78.4202 1280.86,-37.0305"/>
<polygon fill="black" stroke="black" points="1282.35,-33.8607 1271.82,-32.6343 1279.29,-40.1556 1282.35,-33.8607"/>
</g>
<!-- for_index -->
<g id="node21" class="node"><title>for_index</title>
<ellipse fill="none" stroke="black" cx="1157.79" cy="-90" rx="44.271" ry="18"/>
<text text-anchor="middle" x="1157.79" y="-86.3" font-family="Times,serif" font-size="14.00">for_index</text>
</g>
<!-- for_indices&#45;&gt;for_index -->
<g id="edge29" class="edge"><title>for_indices&#45;&gt;for_index</title>
<path fill="none" stroke="black" d="M1081.54,-145.465C1095.3,-135.633 1113.27,-122.797 1128.31,-112.055"/>
<polygon fill="black" stroke="black" points="1130.67,-114.672 1136.77,-106.011 1126.6,-108.976 1130.67,-114.672"/>
</g>
<!-- for_index&#45;&gt;expression -->
<g id="edge30" class="edge"><title>for_index&#45;&gt;expression</title>
<path fill="none" stroke="black" d="M1176.88,-73.4647C1188.49,-64.015 1203.51,-51.7896 1216.37,-41.3165"/>
<polygon fill="black" stroke="black" points="1218.91,-43.7611 1224.46,-34.7339 1214.49,-38.3322 1218.91,-43.7611"/>
</g>
</g>
</svg>
