<?xml version="1.0" encoding="UTF-8" standalone="no"?>
<!DOCTYPE svg PUBLIC "-//W3C//DTD SVG 1.1//EN"
 "http://www.w3.org/Graphics/SVG/1.1/DTD/svg11.dtd">
<!-- Generated by graphviz version 2.36.0 (20140111.2315)
 -->
<!-- Title: extends Pages: 1 -->
<svg width="359pt" height="116pt"
 viewBox="0.00 0.00 359.00 116.00" xmlns="http://www.w3.org/2000/svg" xmlns:xlink="http://www.w3.org/1999/xlink">
<g id="graph0" class="graph" transform="scale(1 1) rotate(0) translate(4 112)">
<title>extends</title>
<polygon fill="white" stroke="none" points="-4,4 -4,-112 355,-112 355,4 -4,4"/>
<!-- extends_clause -->
<g id="node1" class="node"><title>extends_clause</title>
<ellipse fill="none" stroke="black" cx="242" cy="-90" rx="63.5411" ry="18"/>
<text text-anchor="middle" x="242" y="-86.3" font-family="Times,serif" font-size="14.00">extends_clause</text>
</g>
<!-- name -->
<g id="node2" class="node"><title>name</title>
<ellipse fill="none" stroke="black" cx="206" cy="-18" rx="30.3206" ry="18"/>
<text text-anchor="middle" x="206" y="-14.3" font-family="Times,serif" font-size="14.00">name</text>
</g>
<!-- extends_clause&#45;&gt;name -->
<g id="edge1" class="edge"><title>extends_clause&#45;&gt;name</title>
<path fill="none" stroke="black" d="M233.285,-72.055C229.023,-63.7665 223.803,-53.6178 219.075,-44.4241"/>
<polygon fill="black" stroke="black" points="222.073,-42.5992 214.386,-35.307 215.847,-45.8006 222.073,-42.5992"/>
</g>
<!-- class_modification -->
<g id="node3" class="node"><title>class_modification</title>
<ellipse fill="none" stroke="black" cx="80" cy="-18" rx="77.0154" ry="18"/>
<text text-anchor="middle" x="80" y="-14.3" font-family="Times,serif" font-size="14.00">class_modification</text>
</g>
<!-- extends_clause&#45;&gt;class_modification -->
<g id="edge2" class="edge"><title>extends_clause&#45;&gt;class_modification</title>
<path fill="none" stroke="black" d="M208.826,-74.6655C184.505,-64.1565 151.222,-49.7747 124.578,-38.2622"/>
<polygon fill="black" stroke="black" points="125.66,-34.9167 115.092,-34.163 122.883,-41.3425 125.66,-34.9167"/>
</g>
<!-- annotation -->
<g id="node4" class="node"><title>annotation</title>
<ellipse fill="none" stroke="black" cx="303" cy="-18" rx="48.1437" ry="18"/>
<text text-anchor="middle" x="303" y="-14.3" font-family="Times,serif" font-size="14.00">annotation</text>
</g>
<!-- extends_clause&#45;&gt;annotation -->
<g id="edge3" class="edge"><title>extends_clause&#45;&gt;annotation</title>
<path fill="none" stroke="black" d="M256.456,-72.411C264.053,-63.6933 273.506,-52.8454 281.905,-43.2077"/>
<polygon fill="black" stroke="black" points="284.716,-45.3085 288.648,-35.4699 279.439,-40.7096 284.716,-45.3085"/>
</g>
<!-- constraining_clause -->
<g id="node5" class="node"><title>constraining_clause</title>
<ellipse fill="none" stroke="black" cx="80" cy="-90" rx="80.389" ry="18"/>
<text text-anchor="middle" x="80" y="-86.3" font-family="Times,serif" font-size="14.00">constraining_clause</text>
</g>
<!-- constraining_clause&#45;&gt;name -->
<g id="edge4" class="edge"><title>constraining_clause&#45;&gt;name</title>
<path fill="none" stroke="black" d="M108.591,-73.1159C128.614,-61.9921 155.326,-47.1522 175.713,-35.8262"/>
<polygon fill="black" stroke="black" points="177.546,-38.8116 184.588,-30.8956 174.147,-32.6925 177.546,-38.8116"/>
</g>
<!-- constraining_clause&#45;&gt;class_modification -->
<g id="edge5" class="edge"><title>constraining_clause&#45;&gt;class_modification</title>
<path fill="none" stroke="black" d="M80,-71.6966C80,-63.9827 80,-54.7125 80,-46.1124"/>
<polygon fill="black" stroke="black" points="83.5001,-46.1043 80,-36.1043 76.5001,-46.1044 83.5001,-46.1043"/>
</g>
</g>
</svg>
