<?xml version="1.0" encoding="UTF-8" standalone="no"?>
<!DOCTYPE svg PUBLIC "-//W3C//DTD SVG 1.1//EN"
 "http://www.w3.org/Graphics/SVG/1.1/DTD/svg11.dtd">
<!-- Generated by graphviz version 2.36.0 (20140111.2315)
 -->
<!-- Title: expressions Pages: 1 -->
<svg width="1211pt" height="1052pt"
 viewBox="0.00 0.00 1211.00 1052.00" xmlns="http://www.w3.org/2000/svg" xmlns:xlink="http://www.w3.org/1999/xlink">
<g id="graph0" class="graph" transform="scale(1 1) rotate(0) translate(4 1048)">
<title>expressions</title>
<polygon fill="white" stroke="none" points="-4,4 -4,-1048 1207,-1048 1207,4 -4,4"/>
<!-- expression -->
<g id="node1" class="node"><title>expression</title>
<ellipse fill="none" stroke="black" cx="630" cy="-1026" rx="48.1437" ry="18"/>
<text text-anchor="middle" x="630" y="-1022.3" font-family="Times,serif" font-size="14.00">expression</text>
</g>
<!-- expression&#45;&gt;expression -->
<g id="edge2" class="edge"><title>expression&#45;&gt;expression</title>
<path fill="none" stroke="black" d="M663.28,-1039.03C680.488,-1041.03 696,-1036.69 696,-1026 696,-1017.48 686.15,-1013 673.44,-1012.54"/>
<polygon fill="black" stroke="black" points="673.121,-1009.05 663.28,-1012.97 673.421,-1016.04 673.121,-1009.05"/>
</g>
<!-- simple_expression -->
<g id="node2" class="node"><title>simple_expression</title>
<ellipse fill="none" stroke="black" cx="523" cy="-954" rx="76.5394" ry="18"/>
<text text-anchor="middle" x="523" y="-950.3" font-family="Times,serif" font-size="14.00">simple_expression</text>
</g>
<!-- expression&#45;&gt;simple_expression -->
<g id="edge1" class="edge"><title>expression&#45;&gt;simple_expression</title>
<path fill="none" stroke="black" d="M607.046,-1009.98C592.331,-1000.36 572.981,-987.698 556.557,-976.953"/>
<polygon fill="black" stroke="black" points="558.066,-973.758 547.781,-971.212 554.233,-979.616 558.066,-973.758"/>
</g>
<!-- logical_expression -->
<g id="node3" class="node"><title>logical_expression</title>
<ellipse fill="none" stroke="black" cx="520" cy="-882" rx="76.5394" ry="18"/>
<text text-anchor="middle" x="520" y="-878.3" font-family="Times,serif" font-size="14.00">logical_expression</text>
</g>
<!-- simple_expression&#45;&gt;logical_expression -->
<g id="edge3" class="edge"><title>simple_expression&#45;&gt;logical_expression</title>
<path fill="none" stroke="black" d="M522.258,-935.697C521.928,-927.983 521.531,-918.712 521.162,-910.112"/>
<polygon fill="black" stroke="black" points="524.658,-909.945 520.733,-900.104 517.665,-910.245 524.658,-909.945"/>
</g>
<!-- logical_term -->
<g id="node4" class="node"><title>logical_term</title>
<ellipse fill="none" stroke="black" cx="500" cy="-810" rx="55.3436" ry="18"/>
<text text-anchor="middle" x="500" y="-806.3" font-family="Times,serif" font-size="14.00">logical_term</text>
</g>
<!-- logical_expression&#45;&gt;logical_term -->
<g id="edge4" class="edge"><title>logical_expression&#45;&gt;logical_term</title>
<path fill="none" stroke="black" d="M515.056,-863.697C512.828,-855.898 510.145,-846.509 507.665,-837.829"/>
<polygon fill="black" stroke="black" points="511,-836.758 504.887,-828.104 504.269,-838.681 511,-836.758"/>
</g>
<!-- logical_factor -->
<g id="node5" class="node"><title>logical_factor</title>
<ellipse fill="none" stroke="black" cx="461" cy="-738" rx="59.1941" ry="18"/>
<text text-anchor="middle" x="461" y="-734.3" font-family="Times,serif" font-size="14.00">logical_factor</text>
</g>
<!-- logical_term&#45;&gt;logical_factor -->
<g id="edge5" class="edge"><title>logical_term&#45;&gt;logical_factor</title>
<path fill="none" stroke="black" d="M490.559,-792.055C485.96,-783.801 480.334,-773.701 475.228,-764.538"/>
<polygon fill="black" stroke="black" points="478.278,-762.821 470.354,-755.789 472.163,-766.228 478.278,-762.821"/>
</g>
<!-- relation -->
<g id="node6" class="node"><title>relation</title>
<ellipse fill="none" stroke="black" cx="451" cy="-666" rx="37.5442" ry="18"/>
<text text-anchor="middle" x="451" y="-662.3" font-family="Times,serif" font-size="14.00">relation</text>
</g>
<!-- logical_factor&#45;&gt;relation -->
<g id="edge6" class="edge"><title>logical_factor&#45;&gt;relation</title>
<path fill="none" stroke="black" d="M458.528,-719.697C457.426,-711.983 456.102,-702.712 454.873,-694.112"/>
<polygon fill="black" stroke="black" points="458.323,-693.509 453.443,-684.104 451.393,-694.499 458.323,-693.509"/>
</g>
<!-- arithmetic_expression -->
<g id="node7" class="node"><title>arithmetic_expression</title>
<ellipse fill="none" stroke="black" cx="451" cy="-594" rx="89.0632" ry="18"/>
<text text-anchor="middle" x="451" y="-590.3" font-family="Times,serif" font-size="14.00">arithmetic_expression</text>
</g>
<!-- relation&#45;&gt;arithmetic_expression -->
<g id="edge7" class="edge"><title>relation&#45;&gt;arithmetic_expression</title>
<path fill="none" stroke="black" d="M451,-647.697C451,-639.983 451,-630.712 451,-622.112"/>
<polygon fill="black" stroke="black" points="454.5,-622.104 451,-612.104 447.5,-622.104 454.5,-622.104"/>
</g>
<!-- rel_op -->
<g id="node8" class="node"><title>rel_op</title>
<ellipse fill="none" stroke="black" cx="311" cy="-594" rx="33.2209" ry="18"/>
<text text-anchor="middle" x="311" y="-590.3" font-family="Times,serif" font-size="14.00">rel_op</text>
</g>
<!-- relation&#45;&gt;rel_op -->
<g id="edge8" class="edge"><title>relation&#45;&gt;rel_op</title>
<path fill="none" stroke="black" d="M425.971,-652.485C403.096,-641.048 369.11,-624.055 344.018,-611.509"/>
<polygon fill="black" stroke="black" points="345.388,-608.281 334.878,-606.939 342.257,-614.542 345.388,-608.281"/>
</g>
<!-- add_op -->
<g id="node9" class="node"><title>add_op</title>
<ellipse fill="none" stroke="black" cx="369" cy="-522" rx="36.096" ry="18"/>
<text text-anchor="middle" x="369" y="-518.3" font-family="Times,serif" font-size="14.00">add_op</text>
</g>
<!-- arithmetic_expression&#45;&gt;add_op -->
<g id="edge9" class="edge"><title>arithmetic_expression&#45;&gt;add_op</title>
<path fill="none" stroke="black" d="M431.567,-576.411C420.408,-566.885 406.269,-554.815 394.256,-544.56"/>
<polygon fill="black" stroke="black" points="396.22,-541.634 386.342,-537.804 391.675,-546.958 396.22,-541.634"/>
</g>
<!-- term -->
<g id="node10" class="node"><title>term</title>
<ellipse fill="none" stroke="black" cx="451" cy="-522" rx="26.949" ry="18"/>
<text text-anchor="middle" x="451" y="-518.3" font-family="Times,serif" font-size="14.00">term</text>
</g>
<!-- arithmetic_expression&#45;&gt;term -->
<g id="edge10" class="edge"><title>arithmetic_expression&#45;&gt;term</title>
<path fill="none" stroke="black" d="M451,-575.697C451,-567.983 451,-558.712 451,-550.112"/>
<polygon fill="black" stroke="black" points="454.5,-550.104 451,-540.104 447.5,-550.104 454.5,-550.104"/>
</g>
<!-- factor -->
<g id="node11" class="node"><title>factor</title>
<ellipse fill="none" stroke="black" cx="451" cy="-450" rx="31.2965" ry="18"/>
<text text-anchor="middle" x="451" y="-446.3" font-family="Times,serif" font-size="14.00">factor</text>
</g>
<!-- term&#45;&gt;factor -->
<g id="edge11" class="edge"><title>term&#45;&gt;factor</title>
<path fill="none" stroke="black" d="M451,-503.697C451,-495.983 451,-486.712 451,-478.112"/>
<polygon fill="black" stroke="black" points="454.5,-478.104 451,-468.104 447.5,-478.104 454.5,-478.104"/>
</g>
<!-- mul_op -->
<g id="node12" class="node"><title>mul_op</title>
<ellipse fill="none" stroke="black" cx="363" cy="-450" rx="38.0212" ry="18"/>
<text text-anchor="middle" x="363" y="-446.3" font-family="Times,serif" font-size="14.00">mul_op</text>
</g>
<!-- term&#45;&gt;mul_op -->
<g id="edge12" class="edge"><title>term&#45;&gt;mul_op</title>
<path fill="none" stroke="black" d="M434.033,-507.503C421.507,-497.54 404.211,-483.781 389.821,-472.335"/>
<polygon fill="black" stroke="black" points="391.748,-469.396 381.743,-465.909 387.391,-474.874 391.748,-469.396"/>
</g>
<!-- primary -->
<g id="node13" class="node"><title>primary</title>
<ellipse fill="none" stroke="black" cx="446" cy="-378" rx="38.4949" ry="18"/>
<text text-anchor="middle" x="446" y="-374.3" font-family="Times,serif" font-size="14.00">primary</text>
</g>
<!-- factor&#45;&gt;primary -->
<g id="edge13" class="edge"><title>factor&#45;&gt;primary</title>
<path fill="none" stroke="black" d="M449.764,-431.697C449.213,-423.983 448.551,-414.712 447.937,-406.112"/>
<polygon fill="black" stroke="black" points="451.425,-405.83 447.222,-396.104 444.443,-406.328 451.425,-405.83"/>
</g>
<!-- name -->
<g id="node14" class="node"><title>name</title>
<ellipse fill="none" stroke="black" cx="202" cy="-90" rx="30.3206" ry="18"/>
<text text-anchor="middle" x="202" y="-86.3" font-family="Times,serif" font-size="14.00">name</text>
</g>
<!-- primary&#45;&gt;name -->
<g id="edge14" class="edge"><title>primary&#45;&gt;name</title>
<path fill="none" stroke="black" d="M407.402,-376.454C331.253,-374.472 166.007,-365.389 131,-324 77.9115,-261.233 146.394,-159.433 182.424,-114.077"/>
<polygon fill="black" stroke="black" points="185.161,-116.26 188.738,-106.287 179.722,-111.852 185.161,-116.26"/>
</g>
<!-- function_call_args -->
<g id="node15" class="node"><title>function_call_args</title>
<ellipse fill="none" stroke="black" cx="446" cy="-306" rx="76.0649" ry="18"/>
<text text-anchor="middle" x="446" y="-302.3" font-family="Times,serif" font-size="14.00">function_call_args</text>
</g>
<!-- primary&#45;&gt;function_call_args -->
<g id="edge15" class="edge"><title>primary&#45;&gt;function_call_args</title>
<path fill="none" stroke="black" d="M446,-359.697C446,-351.983 446,-342.712 446,-334.112"/>
<polygon fill="black" stroke="black" points="449.5,-334.104 446,-324.104 442.5,-334.104 449.5,-334.104"/>
</g>
<!-- component_reference -->
<g id="node16" class="node"><title>component_reference</title>
<ellipse fill="none" stroke="black" cx="227" cy="-306" rx="87.1385" ry="18"/>
<text text-anchor="middle" x="227" y="-302.3" font-family="Times,serif" font-size="14.00">component_reference</text>
</g>
<!-- primary&#45;&gt;component_reference -->
<g id="edge16" class="edge"><title>primary&#45;&gt;component_reference</title>
<path fill="none" stroke="black" d="M415.087,-367.119C380.522,-356.071 323.874,-337.964 281.765,-324.505"/>
<polygon fill="black" stroke="black" points="282.798,-321.16 272.207,-321.45 280.666,-327.828 282.798,-321.16"/>
</g>
<!-- output_expression_list -->
<g id="node17" class="node"><title>output_expression_list</title>
<ellipse fill="none" stroke="black" cx="630" cy="-306" rx="90.0136" ry="18"/>
<text text-anchor="middle" x="630" y="-302.3" font-family="Times,serif" font-size="14.00">output_expression_list</text>
</g>
<!-- primary&#45;&gt;output_expression_list -->
<g id="edge17" class="edge"><title>primary&#45;&gt;output_expression_list</title>
<path fill="none" stroke="black" d="M475.155,-365.908C503.378,-355.172 546.714,-338.685 580.37,-325.881"/>
<polygon fill="black" stroke="black" points="581.928,-329.033 590.03,-322.206 579.439,-322.49 581.928,-329.033"/>
</g>
<!-- expression_list -->
<g id="node18" class="node"><title>expression_list</title>
<ellipse fill="none" stroke="black" cx="802" cy="-306" rx="63.5411" ry="18"/>
<text text-anchor="middle" x="802" y="-302.3" font-family="Times,serif" font-size="14.00">expression_list</text>
</g>
<!-- primary&#45;&gt;expression_list -->
<g id="edge18" class="edge"><title>primary&#45;&gt;expression_list</title>
<path fill="none" stroke="black" d="M481.394,-370.883C535.07,-361.492 640.211,-342.643 729,-324 734.333,-322.88 739.874,-321.672 745.413,-320.434"/>
<polygon fill="black" stroke="black" points="746.356,-323.809 755.336,-318.187 744.809,-316.982 746.356,-323.809"/>
</g>
<!-- function_arguments -->
<g id="node19" class="node"><title>function_arguments</title>
<ellipse fill="none" stroke="black" cx="415" cy="-234" rx="81.3646" ry="18"/>
<text text-anchor="middle" x="415" y="-230.3" font-family="Times,serif" font-size="14.00">function_arguments</text>
</g>
<!-- primary&#45;&gt;function_arguments -->
<g id="edge19" class="edge"><title>primary&#45;&gt;function_arguments</title>
<path fill="none" stroke="black" d="M415.469,-366.795C396.091,-358.546 372.561,-344.832 361,-324 353.236,-310.01 354.808,-302.753 361,-288 365.845,-276.455 374.568,-266.16 383.609,-257.785"/>
<polygon fill="black" stroke="black" points="385.929,-260.406 391.201,-251.216 381.349,-255.113 385.929,-260.406"/>
</g>
<!-- function_call_args&#45;&gt;function_arguments -->
<g id="edge21" class="edge"><title>function_call_args&#45;&gt;function_arguments</title>
<path fill="none" stroke="black" d="M438.496,-288.055C434.969,-280.091 430.682,-270.411 426.74,-261.51"/>
<polygon fill="black" stroke="black" points="429.9,-260.002 422.65,-252.275 423.5,-262.836 429.9,-260.002"/>
</g>
<!-- array_subscripts -->
<g id="node20" class="node"><title>array_subscripts</title>
<ellipse fill="none" stroke="black" cx="217" cy="-234" rx="68.3664" ry="18"/>
<text text-anchor="middle" x="217" y="-230.3" font-family="Times,serif" font-size="14.00">array_subscripts</text>
</g>
<!-- component_reference&#45;&gt;array_subscripts -->
<g id="edge20" class="edge"><title>component_reference&#45;&gt;array_subscripts</title>
<path fill="none" stroke="black" d="M224.528,-287.697C223.426,-279.983 222.102,-270.712 220.873,-262.112"/>
<polygon fill="black" stroke="black" points="224.323,-261.509 219.443,-252.104 217.393,-262.499 224.323,-261.509"/>
</g>
<!-- output_expression_list&#45;&gt;expression -->
<g id="edge30" class="edge"><title>output_expression_list&#45;&gt;expression</title>
<path fill="none" stroke="black" d="M630,-324.049C630,-350.708 630,-403.885 630,-449 630,-883 630,-883 630,-883 630,-923.004 630,-969.347 630,-997.92"/>
<polygon fill="black" stroke="black" points="626.5,-997.951 630,-1007.95 633.5,-997.951 626.5,-997.951"/>
</g>
<!-- expression_list&#45;&gt;expression -->
<g id="edge31" class="edge"><title>expression_list&#45;&gt;expression</title>
<path fill="none" stroke="black" d="M788.118,-323.718C768.493,-349.106 735,-399.661 735,-449 735,-883 735,-883 735,-883 735,-933.943 690.769,-978.575 659.722,-1003.63"/>
<polygon fill="black" stroke="black" points="657.472,-1000.95 651.756,-1009.87 661.787,-1006.46 657.472,-1000.95"/>
</g>
<!-- function_argument -->
<g id="node21" class="node"><title>function_argument</title>
<ellipse fill="none" stroke="black" cx="521" cy="-162" rx="77.4897" ry="18"/>
<text text-anchor="middle" x="521" y="-158.3" font-family="Times,serif" font-size="14.00">function_argument</text>
</g>
<!-- function_arguments&#45;&gt;function_argument -->
<g id="edge22" class="edge"><title>function_arguments&#45;&gt;function_argument</title>
<path fill="none" stroke="black" d="M439.585,-216.765C454.034,-207.223 472.483,-195.04 488.164,-184.684"/>
<polygon fill="black" stroke="black" points="490.132,-187.579 496.548,-179.147 486.275,-181.737 490.132,-187.579"/>
</g>
<!-- for_indices -->
<g id="node22" class="node"><title>for_indices</title>
<ellipse fill="none" stroke="black" cx="337" cy="-162" rx="50.0684" ry="18"/>
<text text-anchor="middle" x="337" y="-158.3" font-family="Times,serif" font-size="14.00">for_indices</text>
</g>
<!-- function_arguments&#45;&gt;for_indices -->
<g id="edge23" class="edge"><title>function_arguments&#45;&gt;for_indices</title>
<path fill="none" stroke="black" d="M396.515,-216.411C386.365,-207.302 373.623,-195.866 362.535,-185.916"/>
<polygon fill="black" stroke="black" points="364.595,-183.062 354.815,-178.988 359.92,-188.272 364.595,-183.062"/>
</g>
<!-- named_arguments -->
<g id="node23" class="node"><title>named_arguments</title>
<ellipse fill="none" stroke="black" cx="417" cy="-90" rx="76.0649" ry="18"/>
<text text-anchor="middle" x="417" y="-86.3" font-family="Times,serif" font-size="14.00">named_arguments</text>
</g>
<!-- function_arguments&#45;&gt;named_arguments -->
<g id="edge24" class="edge"><title>function_arguments&#45;&gt;named_arguments</title>
<path fill="none" stroke="black" d="M415.241,-215.871C415.582,-191.67 416.208,-147.211 416.614,-118.393"/>
<polygon fill="black" stroke="black" points="420.117,-118.238 416.758,-108.189 413.117,-118.139 420.117,-118.238"/>
</g>
<!-- subscript -->
<g id="node25" class="node"><title>subscript</title>
<ellipse fill="none" stroke="black" cx="42" cy="-162" rx="42.3701" ry="18"/>
<text text-anchor="middle" x="42" y="-158.3" font-family="Times,serif" font-size="14.00">subscript</text>
</g>
<!-- array_subscripts&#45;&gt;subscript -->
<g id="edge32" class="edge"><title>array_subscripts&#45;&gt;subscript</title>
<path fill="none" stroke="black" d="M181.164,-218.666C152.019,-207.008 110.96,-190.584 80.9953,-178.598"/>
<polygon fill="black" stroke="black" points="82.2703,-175.339 71.6856,-174.874 79.6705,-181.838 82.2703,-175.339"/>
</g>
<!-- function_argument&#45;&gt;expression -->
<g id="edge29" class="edge"><title>function_argument&#45;&gt;expression</title>
<path fill="none" stroke="black" d="M582.176,-173.246C687.995,-192.717 894,-239.087 894,-305 894,-883 894,-883 894,-883 894,-976.512 763.942,-1008.71 686.398,-1019.6"/>
<polygon fill="black" stroke="black" points="685.74,-1016.15 676.287,-1020.94 686.661,-1023.09 685.74,-1016.15"/>
</g>
<!-- function_argument&#45;&gt;name -->
<g id="edge27" class="edge"><title>function_argument&#45;&gt;name</title>
<path fill="none" stroke="black" d="M466.524,-149.046C402.028,-134.893 296.288,-111.69 240.017,-99.3422"/>
<polygon fill="black" stroke="black" points="240.624,-95.8923 230.106,-97.1676 239.124,-102.73 240.624,-95.8923"/>
</g>
<!-- function_argument&#45;&gt;named_arguments -->
<g id="edge28" class="edge"><title>function_argument&#45;&gt;named_arguments</title>
<path fill="none" stroke="black" d="M496.879,-144.765C482.834,-135.311 464.937,-123.265 449.644,-112.972"/>
<polygon fill="black" stroke="black" points="451.241,-109.828 440.99,-107.147 447.332,-115.635 451.241,-109.828"/>
</g>
<!-- named_argument -->
<g id="node24" class="node"><title>named_argument</title>
<ellipse fill="none" stroke="black" cx="469" cy="-18" rx="72.192" ry="18"/>
<text text-anchor="middle" x="469" y="-14.3" font-family="Times,serif" font-size="14.00">named_argument</text>
</g>
<!-- named_arguments&#45;&gt;named_argument -->
<g id="edge25" class="edge"><title>named_arguments&#45;&gt;named_argument</title>
<path fill="none" stroke="black" d="M429.588,-72.055C435.847,-63.6287 443.535,-53.2798 450.454,-43.9663"/>
<polygon fill="black" stroke="black" points="453.375,-45.9036 456.528,-35.789 447.755,-41.7293 453.375,-45.9036"/>
</g>
<!-- named_argument&#45;&gt;function_argument -->
<g id="edge26" class="edge"><title>named_argument&#45;&gt;function_argument</title>
<path fill="none" stroke="black" d="M481.605,-35.8506C488.557,-45.8842 496.807,-59.1342 502,-72 510.02,-91.8702 514.875,-115.665 517.667,-133.65"/>
<polygon fill="black" stroke="black" points="514.232,-134.35 519.116,-143.752 521.161,-133.357 514.232,-134.35"/>
</g>
<!-- subscript&#45;&gt;expression -->
<g id="edge33" class="edge"><title>subscript&#45;&gt;expression</title>
<path fill="none" stroke="black" d="M45.1611,-179.98C49.824,-206.546 58,-259.6 58,-305 58,-883 58,-883 58,-883 58,-988.168 426.825,-1016 572.147,-1022.88"/>
<polygon fill="black" stroke="black" points="572.066,-1026.38 582.215,-1023.34 572.386,-1019.39 572.066,-1026.38"/>
</g>
<!-- comment -->
<g id="node26" class="node"><title>comment</title>
<ellipse fill="none" stroke="black" cx="1058" cy="-1026" rx="44.2946" ry="18"/>
<text text-anchor="middle" x="1058" y="-1022.3" font-family="Times,serif" font-size="14.00">comment</text>
</g>
<!-- string_comment -->
<g id="node27" class="node"><title>string_comment</title>
<ellipse fill="none" stroke="black" cx="991" cy="-954" rx="68.3417" ry="18"/>
<text text-anchor="middle" x="991" y="-950.3" font-family="Times,serif" font-size="14.00">string_comment</text>
</g>
<!-- comment&#45;&gt;string_comment -->
<g id="edge34" class="edge"><title>comment&#45;&gt;string_comment</title>
<path fill="none" stroke="black" d="M1042.46,-1008.76C1034.04,-999.969 1023.47,-988.928 1014.11,-979.144"/>
<polygon fill="black" stroke="black" points="1016.36,-976.437 1006.92,-971.633 1011.31,-981.278 1016.36,-976.437"/>
</g>
<!-- annotation -->
<g id="node28" class="node"><title>annotation</title>
<ellipse fill="none" stroke="black" cx="1126" cy="-954" rx="48.1437" ry="18"/>
<text text-anchor="middle" x="1126" y="-950.3" font-family="Times,serif" font-size="14.00">annotation</text>
</g>
<!-- comment&#45;&gt;annotation -->
<g id="edge35" class="edge"><title>comment&#45;&gt;annotation</title>
<path fill="none" stroke="black" d="M1073.43,-1009.12C1082.17,-1000.12 1093.28,-988.682 1103.03,-978.646"/>
<polygon fill="black" stroke="black" points="1105.7,-980.919 1110.16,-971.307 1100.68,-976.041 1105.7,-980.919"/>
</g>
<!-- class_modification -->
<g id="node29" class="node"><title>class_modification</title>
<ellipse fill="none" stroke="black" cx="1126" cy="-882" rx="77.0154" ry="18"/>
<text text-anchor="middle" x="1126" y="-878.3" font-family="Times,serif" font-size="14.00">class_modification</text>
</g>
<!-- annotation&#45;&gt;class_modification -->
<g id="edge36" class="edge"><title>annotation&#45;&gt;class_modification</title>
<path fill="none" stroke="black" d="M1126,-935.697C1126,-927.983 1126,-918.712 1126,-910.112"/>
<polygon fill="black" stroke="black" points="1129.5,-910.104 1126,-900.104 1122.5,-910.104 1129.5,-910.104"/>
</g>
</g>
</svg>
